<svg width="246" height="196" viewBox="0 0 246 196" fill="none" xmlns="http://www.w3.org/2000/svg">
<path d="M100.395 242.007L22.9785 197.316L156.544 120.204L233.955 164.895L100.395 242.007Z" fill="#F0F0F0"/>
<path d="M163.976 5.31152L162.339 6.22621V78.2564L163.976 77.3363V5.31152Z" fill="#FAFAFA"/>
<path d="M163.977 77.3372L163.982 7.1792L229.845 45.2055L229.834 115.358L163.977 77.3372Z" fill="white"/>
<path d="M232.894 122.526V43.4454L159.291 0.952637V80.0115L232.894 122.526ZM162.34 78.2784V6.22679L229.845 45.2052V117.23L162.34 78.2784Z" fill="#F0F0F0"/>
<path d="M162.339 78.2565L163.976 77.3364L229.833 115.357L229.844 117.23L162.339 78.2565Z" fill="#E0E0E0"/>
<path d="M180.724 16.8389L179.082 15.8921V87.9223L180.724 87.0076V16.8389Z" fill="#FAFAFA"/>
<path d="M217.722 38.2026L216.08 37.2559V109.286L217.722 108.366V38.2026Z" fill="#FAFAFA"/>
<path d="M232.887 122.504L234.524 121.557V42.4927L232.892 43.4448L232.887 122.504Z" fill="#E0E0E0"/>
<path d="M234.525 42.4928L232.894 43.4449L159.291 0.952129L160.928 0L234.525 42.4928Z" fill="#FAFAFA"/>
<path d="M229.843 78.0375V79.9311L162.333 40.9526L163.964 40.0005L229.843 78.0375Z" fill="#E0E0E0"/>
<path d="M229.838 83.4449L229.843 79.9306L162.333 40.9521L162.338 44.4718L229.838 83.4449Z" fill="#F0F0F0"/>
<path d="M216.081 112.801L213.043 111.047V31.9824L216.081 33.7423V112.801Z" fill="#F0F0F0"/>
<path d="M179.087 91.4422L176.049 89.6877V10.6235L179.087 12.3834V91.4422Z" fill="#F0F0F0"/>
<path d="M216.08 71.9818L217.722 71.0404V38.2026L216.08 37.2559V71.9818Z" fill="#FAFAFA"/>
<path d="M179.098 50.6293L180.74 49.6879V16.8501L179.098 15.9033V50.6293Z" fill="#FAFAFA"/>
<path d="M19.8818 80.9046C18.528 84.256 17.7208 87.803 17.4908 91.4101C16.8061 99.4337 19.6304 122.376 21.2779 134.031C23.6475 153.518 26.5467 153.55 30.7724 156.813C38.0311 162.419 58.9191 173.395 65.814 176.134C78.3147 181.049 88.5314 173.459 96.1484 169.715C103.133 166.183 109.875 162.191 116.33 157.765C118.235 156.374 119.219 154.973 119.203 153.486C119.203 152.908 119.203 150.512 119.203 149.897C119.203 148.014 117.545 145.997 114.046 143.729C107.59 139.541 84.2575 125.933 75.2123 120.926C75.21 120.907 75.2014 120.889 75.1878 120.876C75.1742 120.862 75.1565 120.854 75.1374 120.851C68.1836 116.626 63.9044 91.0839 59.0903 75.807C58.9886 75.4861 58.887 75.1651 58.78 74.8602C58.673 74.5553 58.6088 74.3788 58.5286 74.1488C58.2237 73.3197 57.9135 72.5441 57.5818 71.8647" fill="#E95322"/>
<path d="M119.202 149.89C119.202 148.008 117.544 145.991 114.046 143.723C107.59 139.535 84.257 125.927 75.2118 120.92C75.2095 120.901 75.2009 120.883 75.1873 120.87C75.1738 120.856 75.156 120.847 75.1369 120.845C68.1832 116.619 63.9039 91.0778 59.0898 75.8009C58.8026 74.8483 58.4669 73.911 58.0842 72.9927L57.9933 72.7894C57.9077 72.5862 57.8167 72.3775 57.7205 72.1689C57.6723 72.0673 57.6295 71.955 57.5814 71.8587C56.8225 70.1177 55.7325 68.5408 54.3719 67.2157C53.8917 66.7731 53.3515 66.4004 52.7672 66.1085C51.9863 65.6645 50.3441 64.7498 49.9322 64.5037C45.2037 61.6795 39.0095 65.0707 31.2855 69.3179C26.4714 71.9496 22.3793 75.0842 19.8867 80.9146C18.5329 84.266 17.7257 87.8129 17.4957 91.4201C16.811 99.4437 19.6353 122.386 21.2828 134.041C23.6524 153.528 26.5516 153.56 30.7773 156.823C38.036 162.429 58.924 173.405 65.8189 176.144C78.3196 181.059 88.5363 173.469 96.1533 169.725C103.138 166.193 109.88 162.201 116.335 157.775C118.239 156.384 119.224 154.983 119.208 153.496C119.186 152.902 119.202 150.506 119.202 149.89Z" fill="#E95322"/>
<path opacity="0.25" d="M119.202 149.89C119.202 148.008 117.544 145.991 114.046 143.723C107.59 139.535 84.257 125.927 75.2118 120.92C75.2095 120.901 75.2009 120.883 75.1873 120.87C75.1738 120.856 75.156 120.847 75.1369 120.845C68.1832 116.619 63.9039 91.0778 59.0898 75.8009C58.8026 74.8483 58.4669 73.911 58.0842 72.9927L57.9933 72.7894C57.9077 72.5862 57.8167 72.3775 57.7205 72.1689C57.6723 72.0673 57.6295 71.955 57.5814 71.8587C56.8225 70.1177 55.7325 68.5408 54.3719 67.2157C53.8917 66.7731 53.3515 66.4004 52.7672 66.1085C51.9863 65.6645 50.3441 64.7498 49.9322 64.5037C45.2037 61.6795 39.0095 65.0707 31.2855 69.3179C26.4714 71.9496 22.3793 75.0842 19.8867 80.9146C18.5329 84.266 17.7257 87.8129 17.4957 91.4201C16.811 99.4437 19.6353 122.386 21.2828 134.041C23.6524 153.528 26.5516 153.56 30.7773 156.823C38.036 162.429 58.924 173.405 65.8189 176.144C78.3196 181.059 88.5363 173.469 96.1533 169.725C103.138 166.193 109.88 162.201 116.335 157.775C118.239 156.384 119.224 154.983 119.208 153.496C119.186 152.902 119.202 150.506 119.202 149.89Z" fill="white"/>
<path d="M96.1443 166.077C103.129 162.543 109.871 158.549 116.326 154.122C120.659 150.971 120.258 147.751 114.048 143.723C105.42 138.128 70.255 118.171 70.255 118.171C70.255 118.171 25.7937 144.413 27.7034 149.27C29.613 154.127 57.1231 169.11 65.8046 172.517C78.3106 177.422 88.5273 169.837 96.1443 166.077Z" fill="#E95322"/>
<path opacity="0.6" d="M96.1443 166.077C103.129 162.543 109.871 158.549 116.326 154.122C120.659 150.971 120.258 147.751 114.048 143.723C105.42 138.128 70.255 118.171 70.255 118.171C70.255 118.171 25.7937 144.413 27.7034 149.27C29.613 154.127 57.1231 169.11 65.8046 172.517C78.3106 177.422 88.5273 169.837 96.1443 166.077Z" fill="white"/>
<path d="M52.7624 66.109C48.082 63.6538 42.0001 66.9916 34.4794 71.1104C29.6652 73.7528 25.5518 76.8874 23.0592 82.7446L19.8818 80.9045C22.3745 75.074 26.4719 71.9395 31.2806 69.3078C39.0047 65.0767 45.1881 61.6854 49.9274 64.4936C50.3393 64.7557 51.9814 65.6651 52.7624 66.109Z" fill="#E95322"/>
<path opacity="0.5" d="M52.7624 66.109C48.082 63.6538 42.0001 66.9916 34.4794 71.1104C29.6652 73.7528 25.5518 76.8874 23.0592 82.7446L19.8818 80.9045C22.3745 75.074 26.4719 71.9395 31.2806 69.3078C39.0047 65.0767 45.1881 61.6854 49.9274 64.4936C50.3393 64.7557 51.9814 65.6651 52.7624 66.109Z" fill="white"/>
<path d="M59.0694 75.8018C58.9678 75.4808 57.3577 69.875 54.3409 67.2166C52.926 65.9586 51.0936 65.2721 49.2004 65.2909C45.1138 65.2909 40.2087 67.9654 34.4585 71.1374C33.9771 71.3995 33.501 71.6723 33.0356 71.9451C32.8538 72.0467 32.6773 72.1591 32.5007 72.266C32.3242 72.373 32.0728 72.5282 31.8642 72.6672C31.6556 72.8063 31.554 72.8598 31.3988 72.9668C30.384 73.6354 29.4154 74.3716 28.4997 75.1706C28.3499 75.299 28.2108 75.4273 28.0664 75.5664C27.4856 76.102 26.9372 76.6718 26.4242 77.2727C26.328 77.3797 26.2317 77.4921 26.1461 77.599C26.0605 77.706 25.9214 77.8665 25.8198 78.0056C25.7182 78.1446 25.6112 78.2837 25.5042 78.4228C25.3972 78.5619 25.3009 78.7009 25.1993 78.8507C24.7887 79.4371 24.4085 80.0441 24.06 80.6694C24.0102 80.7485 23.9655 80.8307 23.9262 80.9155C23.8299 81.0813 23.739 81.2578 23.6534 81.4504C23.5678 81.6429 23.402 81.9853 23.279 82.2206C21.9685 85.1091 21.0591 88.6823 20.674 93.2343C19.5614 106.462 24.199 147.014 28.7457 150.785C28.7457 150.785 28.0503 146.505 37.1972 140.75C43.4181 136.84 47.783 133.55 54.4211 130.292C70.5966 122.349 75.1273 120.862 75.1273 120.862C68.1842 116.642 63.8889 91.0786 59.0694 75.8018Z" fill="#E95322"/>
<path opacity="0.4" d="M59.0694 75.8018C58.9678 75.4808 57.3577 69.875 54.3409 67.2166C52.926 65.9586 51.0936 65.2721 49.2004 65.2909C45.1138 65.2909 40.2087 67.9654 34.4585 71.1374C33.9771 71.3995 33.501 71.6723 33.0356 71.9451C32.8538 72.0467 32.6773 72.1591 32.5007 72.266C32.3242 72.373 32.0728 72.5282 31.8642 72.6672C31.6556 72.8063 31.554 72.8598 31.3988 72.9668C30.384 73.6354 29.4154 74.3716 28.4997 75.1706C28.3499 75.299 28.2108 75.4273 28.0664 75.5664C27.4856 76.102 26.9372 76.6718 26.4242 77.2727C26.328 77.3797 26.2317 77.4921 26.1461 77.599C26.0605 77.706 25.9214 77.8665 25.8198 78.0056C25.7182 78.1446 25.6112 78.2837 25.5042 78.4228C25.3972 78.5619 25.3009 78.7009 25.1993 78.8507C24.7887 79.4371 24.4085 80.0441 24.06 80.6694C24.0102 80.7485 23.9655 80.8307 23.9262 80.9155C23.8299 81.0813 23.739 81.2578 23.6534 81.4504C23.5678 81.6429 23.402 81.9853 23.279 82.2206C21.9685 85.1091 21.0591 88.6823 20.674 93.2343C19.5614 106.462 24.199 147.014 28.7457 150.785C28.7457 150.785 28.0503 146.505 37.1972 140.75C43.4181 136.84 47.783 133.55 54.4211 130.292C70.5966 122.349 75.1273 120.862 75.1273 120.862C68.1842 116.642 63.8889 91.0786 59.0694 75.8018Z" fill="white"/>
<path d="M123.359 143.386L85.9159 165.007L58.165 132.378L87.0017 118.695C87.0017 118.695 110.554 131.207 123.359 143.386Z" fill="#37474F"/>
<path d="M104.241 154.411L90.1946 162.52C83.5351 152.138 78.1807 143.339 78.1807 143.339L79.3842 143.141C85.9154 140.279 88.5846 127.34 88.5846 127.34C89.3816 130.876 89.526 138.038 87.3436 140.712C90.3872 142.943 95.3725 147.03 104.241 154.411Z" fill="#263238"/>
<path d="M102.021 155.689L72.6497 172.646C69.114 170.854 65.2199 168.848 61.1867 166.762C47.536 159.583 42.9679 156.759 39.0363 151.795C34.5271 146.114 32.1735 141.45 31.5049 125.735L86.8407 118.781C91.4248 130.725 84.7011 141.049 84.7011 141.049C84.7011 141.049 94.3989 149.147 102.021 155.689Z" fill="#37474F"/>
<path d="M72.0244 58.6421C78.9354 58.5726 83.0648 59.9312 87.9164 67.3664C95.5388 79.0434 101.209 89.9287 101.209 89.9287C101.209 89.9287 111.404 94.8391 116.721 96.6898C121.696 98.4176 123.675 99.1451 125.814 99.6479C127.595 100.078 129.41 100.352 131.238 100.466C131.238 100.466 128.735 113.839 123.151 112.673C114.485 110.859 99.1334 107.998 95.052 106.853C90.9707 105.708 89.6174 103.718 85.6645 98.4818C81.642 93.1327 73.2066 78.9631 73.2066 78.9631L72.0244 58.6421Z" fill="#C8856A"/>
<path d="M72.0248 58.4282C78.3153 58.5566 80.6475 59.0327 83.6055 61.5842C86.5635 64.1357 89.3825 68.8107 92.0303 73.106C94.678 77.4013 99.4815 85.5639 99.4815 85.5639C99.4815 85.5639 98.4491 90.1373 93.2498 93.6303C88.0506 97.1232 84.4186 97.5671 84.4186 97.5671L71.7734 79.4232L72.0248 58.4282Z" fill="#455A64"/>
<path d="M87.135 81.151C86.4129 65.5746 79.9191 59.3322 72.024 58.4282C72.024 58.4282 61.7324 58.0057 55.4419 58.9097C47.7982 60.0169 39.8923 62.0068 39.8923 62.0068C36.8326 63.4296 31.7457 75.4703 31.1947 86.4572C30.7989 94.2615 30.478 100.156 30.478 110.025C30.478 119.894 30.4084 124.521 32.0452 134.823C42.8129 138.953 79.7373 137.803 88.8948 119.712C87.4923 116.258 86.8256 112.548 86.9371 108.822C87.012 103.59 87.3597 86.0453 87.135 81.151Z" fill="#F0F0F0"/>
<path d="M52.3352 52.6996C52.2335 48.2919 48.5908 43.1783 47.2268 39.1451C45.9003 35.2617 45.1995 32.293 45.9056 28.9284C46.3282 26.9332 47.9917 24.3871 49.5697 24.034C48.9332 16.2993 55.0578 13.6462 58.1282 13.3681C59.5649 13.2857 60.9946 13.1069 62.4074 12.8332C64.1298 12.3892 64.6861 11.1375 66.1517 10.2228C68.6818 8.61812 72.4796 9.15302 73.5013 12.2501C75.2825 10.5331 77.3045 10.8808 79.5671 11.8168C80.5242 12.188 81.3049 12.9084 81.7517 13.8326C82.1984 14.7569 82.2779 15.8162 81.9742 16.7968C85.3708 15.497 87.9277 18.1341 87.9437 20.0062C87.9437 21.397 87.4997 22.5042 88.2165 23.8522C89.0189 25.3713 90.891 25.6227 91.6559 24.601C91.6987 26.5802 90.7252 27.9442 88.6444 27.5323C88.9186 28.1184 89.0607 28.7575 89.0607 29.4045C89.0607 30.0515 88.9186 30.6906 88.6444 31.2767C88.2804 32.015 87.6998 32.6247 86.98 33.0242C86.2603 33.4238 85.4358 33.5941 84.6166 33.5125C84.2422 34.5449 84.055 35.5077 83.2526 36.3261C82.486 37.1644 81.528 37.8049 80.4604 38.193C77.0638 39.2628 73.5067 39.22 69.9602 39.4286L65.7773 39.68C65.5366 39.68 64.2956 39.5891 64.1191 39.7763L52.3352 52.6996Z" fill="#263238"/>
<path d="M47.9376 46.3765C50.6977 48.6231 53.0298 46.9648 53.0298 46.9648L50.7458 61.1184C52.2168 67.5373 62.4388 70.0674 66.4613 68.9013C70.4838 67.7352 70.334 65.4244 68.3816 61.6694L68.9914 59.4067C70.6956 59.692 72.416 59.8707 74.1425 59.9416C77.5766 59.9737 80.8983 57.1227 82.3961 53.6137C84.1134 49.189 84.8437 44.4425 84.5357 39.7062C84.4418 38.5064 84.5558 37.2994 84.8727 36.1384C85.6536 33.052 85.3541 31.1424 84.9315 28.3876C81.6526 24.8573 73.2225 22.5893 64.5089 26.2855C64.7389 31.1852 62.3372 34.6888 58.6249 35.994C58.6249 37.3045 58.2826 40.5781 56.1804 40.209C54.6613 39.9416 54.8432 38.0159 53.5059 36.1063C52.1686 34.1967 48.6062 33.2125 46.8303 35.4858C44.3377 38.6096 44.9207 43.8945 47.9376 46.3765Z" fill="#C8856A"/>
<path d="M68.4564 48.4251C68.2309 48.6935 68.0845 49.0195 68.0338 49.3665C68.0044 49.5202 68.0044 49.6781 68.0338 49.8319C68.0762 50.0607 68.1767 50.2749 68.3256 50.4538C68.4745 50.6327 68.6669 50.7703 68.8843 50.8535C69.1381 50.9664 69.4145 51.0195 69.692 51.0086C70.2275 50.9168 70.7262 50.6758 71.1309 50.3133C71.5431 49.9432 72.0617 49.7129 72.6126 49.6553C72.1511 49.3825 71.7159 49.0673 71.3128 48.7139C71.1163 48.5729 70.9368 48.4095 70.7779 48.2271C70.6157 48.0103 70.4674 47.7834 70.3339 47.5478C70.3091 47.492 70.2656 47.4466 70.2109 47.4194C70.1558 47.3979 70.0947 47.3979 70.0397 47.4194C69.5533 47.5506 69.0996 47.782 68.7078 48.0988C68.6145 48.1998 68.5303 48.309 68.4564 48.4251Z" fill="#FFA8A7"/>
<path d="M71.077 48.634C70.9968 48.3826 70.6919 48.4735 70.5047 48.5216C70.2117 48.5965 69.9345 48.7234 69.6863 48.8961C69.5355 49.0015 69.402 49.1296 69.2905 49.2759C69.1919 49.4338 69.1078 49.6003 69.0391 49.7733C69.0391 49.7733 69.0391 49.8322 69.0391 49.8108C69.1624 49.7056 69.2929 49.6091 69.4295 49.5219L69.8575 49.2384C70.1169 49.0806 70.398 48.9617 70.6919 48.8854C70.847 48.8533 71.1305 48.8586 71.077 48.634Z" fill="#F28F8F"/>
<path d="M74.7256 46.628L80.1335 45.6545C78.609 41.0543 76.3891 36.7858 74.8486 36.8018L74.7256 46.628Z" fill="#AF6152"/>
<path d="M70.0297 47.1953C70.1224 47.1914 70.2146 47.2117 70.2971 47.2541C70.5375 47.3981 70.754 47.5786 70.939 47.789C71.668 48.4704 72.5143 49.014 73.437 49.3938C73.6348 49.4736 73.8365 49.5433 74.0414 49.6024L74.7368 49.811C74.8181 49.8252 74.8929 49.8645 74.9508 49.9233C75.3145 50.3566 74.004 50.1854 73.881 50.164C73.3807 50.0882 72.8908 49.9554 72.4207 49.7682C71.4716 49.406 70.6342 48.801 69.9922 48.0137C69.8864 47.8965 69.8111 47.755 69.7729 47.6018C69.7558 47.5245 69.7655 47.4437 69.8005 47.3727C69.8355 47.3017 69.8937 47.2448 69.9655 47.2113C69.9853 47.2011 70.0073 47.1956 70.0297 47.1953Z" fill="#AF6152"/>
<path d="M68.9917 59.407C63.7336 57.9948 59.7539 56.8234 57.5341 52.5388C56.1433 49.8643 55.2393 45.7295 55.2393 45.7295C55.2393 45.7295 55.0949 50.5436 56.368 54.0098C57.3575 56.6843 60.2193 59.3321 68.4996 61.2738L68.9917 59.407Z" fill="#AF6152"/>
<path d="M71.5326 38.1604C71.49 38.4725 71.3566 38.7652 71.1488 39.002C70.941 39.2388 70.6681 39.4092 70.3641 39.4919C70.0602 39.5747 69.7386 39.5661 69.4395 39.4674C69.1403 39.3686 68.8769 39.184 68.6819 38.9365C68.487 38.689 68.3693 38.3896 68.3433 38.0757C68.3174 37.7617 68.3845 37.4471 68.5361 37.171C68.6878 36.8949 68.9174 36.6695 69.1963 36.523C69.4752 36.3765 69.791 36.3153 70.1044 36.347C70.3187 36.3688 70.5264 36.4334 70.7152 36.5371C70.904 36.6408 71.07 36.7815 71.2032 36.9507C71.3365 37.1199 71.4344 37.3142 71.491 37.522C71.5475 37.7299 71.5617 37.947 71.5326 38.1604Z" fill="#263238"/>
<path d="M71.0564 32.8491L67.387 34.1649C67.2154 33.6624 67.2461 33.1127 67.4728 32.6325C67.6994 32.1522 68.1042 31.779 68.6012 31.592C68.8446 31.5052 69.1032 31.4691 69.361 31.486C69.6188 31.5028 69.8705 31.5722 70.1005 31.69C70.3305 31.8078 70.5339 31.9713 70.6983 32.1707C70.8627 32.37 70.9846 32.6009 71.0564 32.8491Z" fill="#263238"/>
<path d="M83.7274 35.3361L80.3789 33.2713C80.5028 33.0439 80.672 32.8442 80.8761 32.6847C81.0802 32.5252 81.3148 32.4093 81.5655 32.3441C81.8162 32.279 82.0776 32.2659 82.3335 32.3058C82.5894 32.3457 82.8345 32.4376 83.0534 32.576C83.4967 32.8632 83.8134 33.309 83.9387 33.8221C84.064 34.3353 83.9884 34.8769 83.7274 35.3361Z" fill="#263238"/>
<path d="M82.6689 39.3907C82.6001 39.6985 82.4421 39.9792 82.2148 40.1977C81.9874 40.4162 81.7007 40.5629 81.3904 40.6195C81.0801 40.676 80.7601 40.6398 80.4702 40.5155C80.1804 40.3912 79.9336 40.1843 79.7607 39.9205C79.5878 39.6568 79.4965 39.3479 79.4981 39.0326C79.4997 38.7172 79.5942 38.4093 79.7698 38.1473C79.9453 37.8853 80.1942 37.6809 80.4853 37.5596C80.7764 37.4382 81.0968 37.4054 81.4065 37.465C81.6173 37.5057 81.8178 37.5882 81.9962 37.7077C82.1745 37.8273 82.3271 37.9814 82.4448 38.161C82.5625 38.3405 82.643 38.5419 82.6815 38.7531C82.72 38.9643 82.7157 39.1812 82.6689 39.3907Z" fill="#263238"/>
<path d="M100.407 208.865L31.9766 169.357L155.588 97.9897L224.012 137.498L100.407 208.865Z" fill="#E95322"/>
<path opacity="0.8" d="M100.407 208.865L31.9766 169.357L155.588 97.9897L224.012 137.498L100.407 208.865Z" fill="white"/>
<path d="M31.9766 169.356V197.39L100.407 236.898V208.864L31.9766 169.356Z" fill="#E95322"/>
<path opacity="0.5" d="M31.9766 169.356V197.39L100.407 236.898V208.864L31.9766 169.356Z" fill="white"/>
<path d="M100.406 236.899L224.017 165.532L224.012 137.498L100.406 208.864V236.899Z" fill="#E95322"/>
<path opacity="0.65" d="M100.406 208.864L224.012 137.498L224.017 165.532L100.406 236.899V208.864Z" fill="white"/>
<path d="M194.983 154.256L162.209 199.092L129.436 192.1L194.983 154.256Z" fill="#EBEBEB"/>
<path d="M52.4688 181.188L66.189 214.112L79.9147 197.032L52.4688 181.188Z" fill="#E0E0E0"/>
<path d="M194.887 154.315L203.542 125.676L175.866 109.699L126.858 114.577L60.9951 152.603L52.4688 181.146L79.9628 197.022L129.436 192.101L194.887 154.315Z" fill="#FAFAFA"/>
<path d="M135.918 188.356C142.62 192.1 150.895 191.806 159.844 186.633C168.793 181.461 177.084 172.191 183.781 160.723L135.918 188.356Z" fill="#E0E0E0"/>
<path opacity="0.2" d="M167.702 132.437C152.078 123.414 129.649 120.723 109.932 124.339L72.8529 145.735C66.5999 157.107 71.2803 170.047 86.8995 179.065C100.272 186.773 118.566 189.865 135.902 188.346L183.765 160.712C186.408 150.715 181.053 140.145 167.702 132.437Z" fill="#E95322"/>
<path d="M123.162 112.672L125.922 113.565C127.174 114.013 128.463 114.352 129.774 114.576C131.025 114.753 132.55 114.191 133.695 114.501C134.229 114.641 136.048 115.282 136.289 115.801C136.53 116.32 136.139 116.962 136.166 117.454C136.239 118.131 136.42 118.792 136.701 119.412C137.08 120.359 137.514 121.38 138.402 121.883C138.669 122.033 138.969 122.129 139.22 122.295C139.619 122.641 139.991 123.016 140.333 123.418C140.695 123.731 141.138 123.935 141.61 124.009C142.083 124.083 142.567 124.023 143.007 123.836C143.603 123.519 144.122 123.075 144.526 122.536C145.207 121.738 145.843 120.902 146.431 120.032C147.586 118.321 148.57 116.229 148.003 114.25C147.682 113.18 146.933 112.244 146.859 111.132C146.883 110.683 146.883 110.233 146.859 109.784C146.698 108.757 145.73 108.029 145.457 107.029C145.361 106.66 145.361 106.269 145.302 105.895C145.083 104.526 143.917 103.6 142.922 102.734C141.875 101.818 140.734 101.015 139.52 100.337C139.026 100.032 138.483 99.8149 137.915 99.6953C137.441 99.6315 136.961 99.6315 136.487 99.6953C134.7 99.8772 132.983 100.23 131.223 100.46C129.672 100.669 127.96 101.059 126.666 102.065C125.243 103.178 124.462 105.023 123.697 106.601C122.825 108.393 121.969 110.212 121.188 112.036L123.162 112.672Z" fill="#C8856A"/>
<path d="M136.861 119.44L145.061 87.6983C144.507 87.2562 144.01 86.7478 143.579 86.1846L143.168 86.2915L133.978 117.022C133.716 117.969 135.524 119.974 136.214 119.798L136.631 119.696C136.689 119.678 136.74 119.644 136.781 119.599C136.821 119.554 136.849 119.499 136.861 119.44Z" fill="#37474F"/>
<path d="M133.978 117.022C133.673 118.092 136.145 120.638 136.449 119.541L144.649 87.7999C144.094 87.3611 143.597 86.8543 143.168 86.2915L133.978 117.022Z" fill="#455A64"/>
<path opacity="0.1" d="M144.258 88.0781L136.973 116.535C136.438 118.675 136.251 119.974 135.245 118.947C134.063 117.749 134.336 117.311 134.336 117.311C134.506 117.769 134.779 118.183 135.133 118.52C135.769 119.113 136.203 118.338 136.524 116.776C136.844 115.214 144.258 88.0781 144.258 88.0781Z" fill="white"/>
<path d="M150.055 70.8481L149.649 70.9443C149.649 70.9443 150.67 73.3407 149.488 77.2616C149.366 78.265 149.009 79.2253 148.445 80.0645C148.338 79.781 148.895 78.3902 149.087 76.9941C149.713 72.4956 149.371 70.4843 149.371 70.4843L148.9 70.2597L148.488 70.3613C148.488 70.3613 149.167 71.3027 147.846 76.9567C147.605 78.647 147.236 78.9893 146.899 79.3637C146.61 79.2033 147.215 77.6734 147.434 76.4753C148.402 71.5113 148.274 70.0564 148.274 70.0564L147.664 69.6927L147.252 69.7943C147.252 69.7943 147.648 70.6287 146.054 76.5555C145.876 77.2809 145.577 77.9715 145.172 78.5988C144.893 78.3367 145.3 77.5665 145.792 75.9243C146.475 73.7958 146.846 71.5797 146.894 69.345L146.359 69.0508L145.953 69.1524C145.953 69.1524 146.669 71.292 143.524 77.8927C142.782 79.4921 142.457 81.2529 142.577 83.0118C142.775 84.6165 143.465 85.3974 143.16 86.3068C143.556 86.8978 144.058 87.4095 144.642 87.8152C144.67 87.7044 144.709 87.5969 144.76 87.4943C144.856 87.5692 144.952 87.6494 145.049 87.7189C145.407 86.1998 147.664 86.0019 148.552 84.7235C149.44 83.445 150.21 81.7066 150.949 77.8179C151.703 73.8168 150.558 71.169 150.558 71.169L150.055 70.8481Z" fill="#37474F"/>
<path d="M149.65 70.9448C149.65 70.9448 150.415 72.8811 149.49 77.262C149.169 78.7704 148.516 80.4714 148.099 80.2414C147.682 80.0114 148.436 78.5832 148.682 77.0962C149.468 72.3623 148.965 70.581 148.965 70.581L148.489 70.3617C148.489 70.3617 148.981 71.838 147.847 76.9571C147.526 78.3853 146.927 79.7386 146.425 79.4604C145.922 79.1823 146.681 77.7808 146.959 76.5719C148.147 71.7097 147.863 70.1531 147.863 70.1531L147.248 69.7947C147.248 69.7947 147.494 71.255 146.05 76.5559C145.702 77.829 145.157 78.9202 144.766 78.7276C144.376 78.535 144.814 77.7808 145.381 76.0264C146.761 71.7471 146.478 69.4417 146.478 69.4417L145.943 69.1528C145.943 69.1528 146.312 71.2924 143.515 77.8932C142.98 79.1876 142.375 81.4235 142.568 83.0122C142.76 84.6009 143.456 85.3979 143.151 86.3072C143.546 86.8982 144.049 87.4099 144.633 87.8156C144.991 86.2965 147.243 86.1039 148.136 84.8202C149.029 83.5364 149.794 81.8087 150.533 77.9199C151.287 73.9188 150.137 71.2657 150.137 71.2657L149.65 70.9448Z" fill="#455A64"/>
<path opacity="0.1" d="M146.43 84.7718C146.066 85.0607 145.675 85.3067 145.36 85.633C145.013 85.9461 144.796 86.3771 144.75 86.8419C145.022 86.5327 145.335 86.2626 145.681 86.0396C145.937 85.8844 146.216 85.7668 146.483 85.6277C147.584 85.0331 148.441 84.0716 148.906 82.9104C148.981 82.7178 149.505 81.3057 149.04 81.3324C148.858 81.3324 148.649 81.9582 148.564 82.1134C148.393 82.4236 148.211 82.7285 148.029 83.0174C147.588 83.6803 147.049 84.272 146.43 84.7718Z" fill="white"/>
<path d="M131.501 102.199C133.912 102.627 136.354 102.847 138.803 102.857C140.306 102.798 141.156 102.632 141.354 103.226C141.552 103.82 141.728 105.425 139.113 106.773C136.497 108.121 129.158 108.709 129.158 108.709L131.501 102.199Z" fill="#C8856A"/>
<path d="M131.501 102.199C132.522 102.356 133.55 102.454 134.582 102.493C135.614 102.563 136.647 102.6 137.674 102.6C138.209 102.6 138.69 102.6 139.204 102.563C139.737 102.508 140.275 102.508 140.808 102.563C140.981 102.582 141.146 102.641 141.292 102.733C141.439 102.826 141.562 102.951 141.654 103.098C141.795 103.396 141.83 103.734 141.755 104.055C141.637 104.613 141.384 105.133 141.017 105.569C140.299 106.383 139.404 107.021 138.401 107.436C137.435 107.876 136.413 108.18 135.363 108.34C134.331 108.481 133.291 108.567 132.25 108.597C131.212 108.629 130.174 108.597 129.147 108.704C131.185 108.276 133.277 108.281 135.277 107.842C136.271 107.649 137.237 107.337 138.155 106.912C139.064 106.515 139.874 105.921 140.525 105.173C140.834 104.821 141.052 104.399 141.161 103.943C141.247 103.456 141.161 103.216 140.701 103.135C139.792 103.002 138.674 103.205 137.647 103.093C135.573 103.01 133.513 102.71 131.501 102.199Z" fill="#AF6152"/>
<path d="M181.777 145.029V152.63C181.712 160.653 176.427 168.613 165.831 174.716C144.563 187.019 110.078 187.019 88.8049 174.716C78.2352 168.613 72.9236 160.627 72.8594 152.63V145.029L79.6634 146.131C82.3567 143.371 85.4272 141.006 88.7835 139.107C110.057 126.805 144.542 126.805 165.81 139.107C169.151 140.988 172.213 143.329 174.903 146.061L181.777 145.029Z" fill="#E95322"/>
<path opacity="0.4" d="M181.777 145.029V152.63C181.712 160.653 176.427 168.613 165.831 174.716C144.563 187.019 110.078 187.019 88.8049 174.716C78.2352 168.613 72.9236 160.627 72.8594 152.63V145.029L79.6634 146.131C82.3567 143.371 85.4272 141.006 88.7835 139.107C110.057 126.805 144.542 126.805 165.81 139.107C169.151 140.988 172.213 143.329 174.903 146.061L181.777 145.029Z" fill="white"/>
<path opacity="0.4" d="M94.1695 177.423C92.3395 176.617 90.5539 175.713 88.8205 174.716C78.2508 168.613 72.9392 160.627 72.875 152.63V145.029L79.679 146.131C80.2513 145.532 80.8611 144.949 81.503 144.371L94.1963 147.5L94.1695 177.423Z" fill="#E95322"/>
<path d="M127.312 176.326C157.391 176.326 181.776 162.247 181.776 144.879C181.776 127.511 157.391 113.432 127.312 113.432C97.232 113.432 72.8477 127.511 72.8477 144.879C72.8477 162.247 97.232 176.326 127.312 176.326Z" fill="#E95322"/>
<path opacity="0.6" d="M127.312 176.326C157.391 176.326 181.776 162.247 181.776 144.879C181.776 127.511 157.391 113.432 127.312 113.432C97.232 113.432 72.8477 127.511 72.8477 144.879C72.8477 162.247 97.232 176.326 127.312 176.326Z" fill="white"/>
<path d="M173.737 137.936C178.508 146.211 174.421 155.155 162.798 161.863C143.541 172.973 111.062 172.973 91.8269 161.863C86.7881 158.948 83.0063 155.476 80.8934 151.812C76.1167 143.548 80.2248 134.599 91.8269 127.875C111.083 116.765 143.563 116.765 162.798 127.875C167.837 130.79 171.618 134.262 173.731 137.926L173.737 137.936Z" fill="#E95322"/>
<path d="M173.736 137.321C178.508 146.329 174.421 156.043 162.798 163.371C143.541 175.465 111.062 175.465 91.8265 163.371C86.7877 160.204 83.0059 156.417 80.893 152.432C76.1163 143.424 80.203 133.71 91.8265 126.382C111.083 114.288 143.562 114.288 162.798 126.382C167.836 129.549 171.618 133.336 173.731 137.321H173.736Z" fill="#E95322"/>
<path opacity="0.4" d="M173.736 137.321C178.508 146.329 174.421 156.043 162.798 163.371C143.541 175.465 111.062 175.465 91.8265 163.371C86.7877 160.204 83.0059 156.417 80.893 152.432C76.1163 143.424 80.203 133.71 91.8265 126.382C111.083 114.288 143.562 114.288 162.798 126.382C167.836 129.549 171.618 133.336 173.731 137.321H173.736Z" fill="white"/>
<path d="M91.7793 130.87C84.3762 135.524 80.0435 141.161 79.0967 146.97C79.3701 148.882 79.9785 150.731 80.894 152.432C83.0068 156.422 86.7779 160.204 91.8274 163.371C111.084 175.465 143.563 175.465 162.798 163.371C170.202 158.717 174.529 153.079 175.481 147.275C175.205 145.362 174.597 143.512 173.684 141.809C171.544 137.824 167.8 134.036 162.745 130.87C143.51 118.781 111.009 118.781 91.7793 130.87Z" fill="#FAFAFA"/>
<path d="M155.909 164.115C155.644 164.241 155.354 164.303 155.062 164.296C154.769 164.29 154.482 164.215 154.224 164.077L150.608 161.991C150.126 161.713 150.1 161.28 150.549 161.023C150.814 160.897 151.105 160.835 151.398 160.841C151.692 160.848 151.98 160.923 152.239 161.06L155.855 163.147C156.337 163.425 156.363 163.858 155.909 164.115Z" fill="#E95322"/>
<path d="M155.909 132.154C155.644 132.028 155.354 131.966 155.062 131.973C154.769 131.979 154.482 132.054 154.224 132.192L150.608 134.278C150.126 134.556 150.1 134.989 150.549 135.246C150.814 135.372 151.105 135.434 151.398 135.428C151.692 135.421 151.98 135.346 152.239 135.209L155.855 133.128C156.337 132.855 156.363 132.416 155.909 132.154Z" fill="#E95322"/>
<path d="M98.5391 164.115C98.8033 164.241 99.0933 164.303 99.386 164.296C99.6786 164.29 99.9656 164.215 100.224 164.077L103.84 161.991C104.327 161.713 104.348 161.28 103.899 161.023C103.634 160.897 103.343 160.835 103.049 160.841C102.756 160.848 102.468 160.923 102.208 161.06L98.5979 163.147C98.1111 163.425 98.0897 163.858 98.5391 164.115Z" fill="#E95322"/>
<path d="M98.5391 132.154C98.8033 132.028 99.0933 131.966 99.386 131.973C99.6786 131.979 99.9656 132.054 100.224 132.192L103.84 134.278C104.327 134.556 104.348 134.989 103.899 135.246C103.634 135.372 103.343 135.434 103.049 135.428C102.756 135.421 102.468 135.346 102.208 135.209L98.5979 133.128C98.1111 132.855 98.0897 132.416 98.5391 132.154Z" fill="#E95322"/>
<path d="M127.286 148.778L148.549 161.546L149.859 160.953L130.95 147.917L127.286 148.778Z" fill="#455A64"/>
<path d="M151.078 133.459L148.938 132.159C148.938 132.159 127.938 139.963 123.653 142.434C122.648 143.017 122.15 143.777 122.15 144.536V145.809C122.15 146.569 122.648 147.334 123.653 147.917C124.782 148.489 126.03 148.788 127.296 148.788C128.562 148.788 129.81 148.489 130.939 147.917C135.346 146.146 151.067 134.737 151.067 134.737L151.078 133.459Z" fill="#37474F"/>
<path d="M148.95 132.154C148.95 132.154 127.949 139.958 123.665 142.429C121.653 143.59 121.653 145.473 123.665 146.634C124.794 147.206 126.042 147.504 127.307 147.504C128.573 147.504 129.821 147.206 130.95 146.634C135.358 144.863 151.079 133.454 151.079 133.454L148.95 132.154Z" fill="#455A64"/>
<path d="M128.5 143.857C128.133 143.67 127.726 143.572 127.313 143.572C126.9 143.572 126.493 143.67 126.125 143.857C125.982 143.905 125.857 143.997 125.769 144.12C125.68 144.243 125.633 144.391 125.633 144.542C125.633 144.693 125.68 144.841 125.769 144.964C125.857 145.087 125.982 145.179 126.125 145.227C126.493 145.414 126.9 145.512 127.313 145.512C127.726 145.512 128.133 145.414 128.5 145.227C128.644 145.179 128.769 145.087 128.857 144.964C128.945 144.841 128.993 144.693 128.993 144.542C128.993 144.391 128.945 144.243 128.857 144.12C128.769 143.997 128.644 143.905 128.5 143.857Z" fill="#263238"/>
<path d="M139.633 127.414L137.078 130.82L137.361 131.032L139.915 127.625L139.633 127.414Z" fill="#37474F"/>
<path d="M114.775 127.425L114.492 127.637L117.046 131.044L117.329 130.832L114.775 127.425Z" fill="#37474F"/>
<path d="M137.359 165.066L137.076 165.278L139.63 168.685L139.913 168.473L137.359 165.066Z" fill="#37474F"/>
<path d="M117.053 165.067L114.498 168.473L114.78 168.685L117.336 165.279L117.053 165.067Z" fill="#37474F"/>
<path d="M166.231 139.203L160.643 140.363L160.714 140.709L166.303 139.549L166.231 139.203Z" fill="#37474F"/>
<path d="M160.706 155.557L160.635 155.903L166.224 157.059L166.295 156.714L160.706 155.557Z" fill="#37474F"/>
<path d="M88.1799 139.228L88.1084 139.573L93.6974 140.73L93.769 140.384L88.1799 139.228Z" fill="#37474F"/>
<path d="M93.6929 155.555L88.1045 156.714L88.1762 157.06L93.7646 155.9L93.6929 155.555Z" fill="#37474F"/>
<path d="M73.8064 145.81C72.828 145.492 71.8674 145.123 70.9286 144.703C67.6178 143.068 64.2094 141.639 60.7227 140.423L65.478 147.832C67.8048 148.49 70.1423 149.362 72.6082 149.276C73.2968 149.266 73.9738 149.098 74.5869 148.784C75.2001 148.471 75.7328 148.02 76.1439 147.468C76.8821 146.371 74.5392 146.061 73.8064 145.81Z" fill="#C8856A"/>
<path d="M65.5417 168.345L73.7364 136.604C73.1856 136.162 72.6899 135.656 72.2601 135.096L71.8482 135.197L62.6586 165.928C62.3965 166.874 64.2044 168.88 64.8945 168.704L65.3117 168.602C65.3696 168.584 65.4215 168.551 65.462 168.505C65.5025 168.46 65.53 168.405 65.5417 168.345Z" fill="#37474F"/>
<path d="M80.0095 119.814C79.8651 116.294 78.8327 114.807 78.2015 114.999C78.0377 115.059 77.8771 115.127 77.7201 115.203C77.1424 116.417 72.5636 133.764 70.2314 141.948L72.5636 141.242C73.1788 138.567 77.0515 137.931 78.2069 135.101C79.3623 132.271 80.1807 124.13 80.0095 119.814Z" fill="#37474F"/>
<path d="M62.6588 165.928C62.3539 167.025 64.8252 169.544 65.1301 168.447L73.3248 136.712C72.7714 136.271 72.2755 135.762 71.8485 135.198L62.6588 165.928Z" fill="#455A64"/>
<path d="M79.4061 120.081C79.2349 115.754 77.9618 114.368 77.3841 115.577C76.8064 116.786 72.1367 133.935 69.7725 142.13L72.11 141.419C72.7198 138.744 76.1164 138.263 77.2718 135.433C78.4272 132.603 79.5826 124.409 79.4061 120.081Z" fill="#455A64"/>
<path opacity="0.1" d="M72.9337 136.968L65.6537 165.425C65.1188 167.565 64.9262 168.865 63.9206 167.843C62.7438 166.639 63.0166 166.201 63.0166 166.201C63.1865 166.658 63.4571 167.071 63.8083 167.41C64.4502 168.003 64.8781 167.228 65.2044 165.666C65.5307 164.104 72.9337 136.968 72.9337 136.968Z" fill="white"/>
<path d="M80.2511 151.266C80.021 151.073 79.7468 150.94 79.4529 150.878C79.1589 150.816 78.8543 150.828 78.5661 150.913C77.9937 151.082 77.4732 151.393 77.0523 151.817C76.7953 152.1 76.4843 152.329 76.1376 152.491C75.748 152.596 75.3388 152.605 74.9448 152.517C73.3401 152.298 71.2486 152.517 69.7937 151.758C68.9603 151.247 68.1776 150.658 67.4562 149.998L67.3438 149.907C66.5468 149.271 65.7712 148.607 65.0116 147.928C65.0491 147.757 65.3058 147.762 65.4824 147.81L60.7271 140.402C57.3893 139.182 55.0838 137.16 48.221 128.789L36.758 114.807C36.758 114.807 41.1763 90.0032 41.647 85.4566C42.7436 75.1383 42.7864 66.5584 38.229 63.1938C30.7082 65.0874 24.8831 68.805 22.888 80.8831C19.9567 98.658 18.3413 109.233 18.0043 112.293C17.2126 119.418 16.7473 122.231 20.2937 125.938C23.7117 129.506 23.7812 129.351 33.7679 137.535C38.1969 141.161 39.9407 143.125 44.1611 146.264C48.2103 149.271 48.8041 150.009 50.4034 151.86C52.0028 153.71 52.6393 155.032 54.7147 157.166C56.2321 158.65 57.9433 159.922 59.8017 160.948C61.2483 161.743 62.8688 162.169 64.5195 162.189C65.9676 162.338 67.4299 162.269 68.8576 161.985C69.6161 161.9 70.3648 161.742 71.0935 161.515C71.6765 161.279 72.0724 160.696 72.5698 160.327C73.2064 159.851 74.6667 159.257 75.2176 158.722C75.7322 158.077 76.1123 157.335 76.3356 156.54C77.2605 156.217 78.0612 155.613 78.625 154.812C78.9833 154.272 79.293 153.701 79.5503 153.106C79.6359 152.903 80.3741 151.378 80.2511 151.266Z" fill="#C8856A"/>
<path d="M76.6992 156.347C75.9603 156.818 75.1314 157.129 74.2654 157.262C73.4096 157.424 72.5452 157.536 71.6764 157.599C71.4625 157.599 71.2753 157.647 71.0025 157.647C70.7744 157.637 70.5473 157.61 70.3231 157.567C69.8927 157.486 69.4675 157.378 69.0501 157.246C68.222 156.991 67.4124 156.68 66.627 156.315L69.1517 156.877C69.5743 156.957 69.9915 157.058 70.4034 157.107C70.6052 157.139 70.8089 157.159 71.0132 157.165C71.1736 157.165 71.4143 157.128 71.6283 157.107C72.4948 157.037 73.3507 156.978 74.2012 156.893C75.0541 156.821 75.8939 156.637 76.6992 156.347Z" fill="#AF6152"/>
<path d="M73.5329 159.76C72.8832 160.159 72.176 160.455 71.4361 160.638C70.6943 160.836 69.9345 160.959 69.1681 161.007C68.3904 160.99 67.6178 160.877 66.868 160.67C66.1309 160.497 65.4055 160.277 64.6963 160.012C65.4559 160.087 66.1994 160.199 66.9482 160.301C67.672 160.42 68.4029 160.491 69.136 160.514C70.6261 160.436 72.1018 160.183 73.5329 159.76Z" fill="#AF6152"/>
<path d="M39.8926 62.0063C32.404 64.0069 27.2903 66.3979 24.7709 73.1056C22.2515 79.8133 19.2988 99.6475 19.2988 99.6475C19.2988 99.6475 20.8607 103.103 28.5099 104.841C36.159 106.58 38.9352 105.708 38.9352 105.708C38.9352 105.708 41.5401 91.3779 42.412 86.6387C43.2839 81.8994 46.3222 69.8266 39.8926 62.0063Z" fill="#455A64"/>
<path opacity="0.2" d="M189.174 144.457C193.646 146.933 200.883 146.933 205.35 144.457C209.816 141.98 209.816 137.963 205.35 135.486C200.883 133.01 193.646 133.004 189.174 135.486C184.702 137.968 184.713 141.985 189.174 144.457Z" fill="#E95322"/>
<path d="M187.345 112.164L188.227 135.363C188.243 135.749 188.334 136.129 188.495 136.481C189.017 137.498 189.851 138.321 190.875 138.829C194.4 140.803 200.123 140.803 203.654 138.829C204.675 138.321 205.506 137.498 206.023 136.481C206.163 136.173 206.252 135.844 206.286 135.507C206.291 135.409 206.291 135.311 206.286 135.213L207.157 112.212C207.605 111.585 207.863 110.843 207.901 110.073L206.831 138.674V138.984C206.724 140.316 205.788 141.632 204.034 142.648C200.289 144.788 194.213 144.788 190.468 142.648C188.644 141.579 187.708 140.215 187.666 138.829V138.733L186.596 110.073C186.643 110.827 186.902 111.552 187.345 112.164Z" fill="#F0F0F0"/>
<path d="M189.729 114.261C193.886 116.663 200.636 116.663 204.798 114.261C205.733 113.754 206.543 113.043 207.167 112.181L206.295 135.181V135.476C206.262 135.812 206.173 136.141 206.033 136.449C205.516 137.466 204.685 138.289 203.664 138.797C200.133 140.771 194.41 140.771 190.885 138.797C189.861 138.289 189.027 137.466 188.505 136.449C188.344 136.097 188.253 135.718 188.237 135.331L187.354 112.148C187.978 113.021 188.79 113.744 189.729 114.261Z" fill="#E6E6E6"/>
<path d="M206.291 135.422C206.217 136.657 205.334 137.877 203.654 138.818C200.124 140.792 194.4 140.792 190.87 138.818C189.191 137.877 188.308 136.679 188.233 135.422L187.484 115.999C187.404 114.555 188.356 113.095 190.346 111.993C194.165 109.853 200.359 109.853 204.179 111.993C206.168 113.095 207.12 114.555 207.04 115.999L206.291 135.422Z" fill="#E95322"/>
<path opacity="0.45" d="M206.291 135.422C206.217 136.657 205.334 137.877 203.654 138.818C200.124 140.792 194.4 140.792 190.87 138.818C189.191 137.877 188.308 136.679 188.233 135.422L187.484 115.999C187.404 114.555 188.356 113.095 190.346 111.993C194.165 109.853 200.359 109.853 204.179 111.993C206.168 113.095 207.12 114.555 207.04 115.999L206.291 135.422Z" fill="white"/>
<path opacity="0.3" d="M203.253 138.412C199.937 140.167 194.556 140.167 191.239 138.412C187.923 136.658 187.923 133.823 191.239 132.068C194.556 130.314 199.937 130.319 203.253 132.068C206.57 133.817 206.586 136.663 203.253 138.412Z" fill="#E95322"/>
<path opacity="0.7" d="M204.178 119.663C200.359 121.803 194.165 121.803 190.346 119.663C186.527 117.524 186.527 114.111 190.346 111.993C194.165 109.874 200.359 109.853 204.178 111.993C207.998 114.132 207.998 117.545 204.178 119.663Z" fill="white"/>
<path opacity="0.2" d="M190.346 119.669C193.657 121.504 198.749 121.744 202.536 120.402C197.262 121.317 192.309 118.861 192.742 115.695C192.742 115.625 192.742 115.561 192.78 115.491C191.714 115.216 190.689 114.803 189.731 114.261C189.299 114.013 188.887 113.73 188.501 113.416C186.671 115.443 187.297 117.973 190.346 119.669Z" fill="#E95322"/>
<path d="M186.606 110.02V110.063C186.646 110.819 186.9 111.548 187.339 112.165C187.967 113.033 188.783 113.75 189.725 114.262C193.881 116.663 200.631 116.663 204.793 114.262C205.728 113.754 206.538 113.043 207.162 112.181C207.61 111.554 207.868 110.811 207.906 110.041C207.976 108.436 206.938 106.778 204.793 105.543C200.631 103.136 193.881 103.136 189.725 105.543C187.601 106.789 186.558 108.41 186.606 110.02ZM190.206 105.997C194.105 103.858 200.423 103.858 204.317 105.997C208.211 108.137 208.216 111.662 204.317 113.828C200.417 115.995 194.105 115.968 190.206 113.828C186.307 111.689 186.307 108.158 190.206 105.997Z" fill="#FAFAFA"/>
<path d="M190.207 113.828C194.106 115.967 200.423 115.967 204.318 113.828C208.212 111.688 208.217 108.158 204.318 105.997C200.418 103.836 194.106 103.857 190.207 105.997C186.307 108.136 186.307 111.661 190.207 113.828Z" fill="#E6E6E6"/>
<path d="M205.58 112.972C205.187 113.296 204.764 113.583 204.317 113.828C200.423 115.967 194.106 115.967 190.207 113.828C189.76 113.583 189.337 113.296 188.944 112.972C189.373 112.594 189.843 112.265 190.346 111.993C194.165 109.853 200.359 109.853 204.178 111.993C204.681 112.265 205.151 112.594 205.58 112.972Z" fill="#E95322"/>
<path opacity="0.65" d="M205.58 112.972C205.187 113.296 204.764 113.583 204.317 113.828C200.423 115.967 194.106 115.967 190.207 113.828C189.76 113.583 189.337 113.296 188.944 112.972C189.373 112.594 189.843 112.265 190.346 111.993C194.165 109.853 200.359 109.853 204.178 111.993C204.681 112.265 205.151 112.594 205.58 112.972Z" fill="white"/>
<path opacity="0.2" d="M204.178 111.993C204.06 111.923 203.937 111.859 203.814 111.8C203.621 111.704 203.418 111.613 203.215 111.528C202.081 111.058 200.89 110.738 199.674 110.576C199.337 110.533 198.994 110.49 198.652 110.469C198.31 110.447 198.064 110.426 197.764 110.42H197.277C196.962 110.42 196.651 110.42 196.341 110.42C195.267 110.475 194.201 110.636 193.159 110.902C192.184 111.137 191.244 111.496 190.361 111.972C190.227 112.041 190.104 112.116 189.981 112.191L189.912 112.239L189.617 112.432L189.569 112.464L189.275 112.688L188.976 112.94C189.369 113.263 189.792 113.549 190.238 113.796C191.112 114.264 192.041 114.623 193.003 114.865C194.196 112.207 199.652 110.64 204.178 111.993Z" fill="#E95322"/>
<path d="M188.275 136.706L188.334 138.482V138.605C188.452 141.242 192.405 143.355 197.262 143.355C202.119 143.355 206.045 141.253 206.189 138.632V138.477L206.243 136.69C205.767 139.167 201.921 141.098 197.251 141.098C192.581 141.098 188.768 139.177 188.275 136.706Z" fill="#FAFAFA"/>
<path opacity="0.2" d="M203.296 139.001C199.75 140.782 194.288 140.728 190.87 138.813C189.191 137.872 188.308 136.674 188.233 135.422L187.495 116.39H187.533C187.751 117.33 188.28 118.169 189.036 118.77C189.367 125.927 189.426 132.849 191.448 135.235C193.384 137.503 198.439 140.798 203.296 139.001Z" fill="#E95322"/>
<path d="M124.178 144.954L124.322 147.329C128.071 147.889 131.855 148.18 135.646 148.201C142.91 148.334 174.523 149.517 176.026 148.538C178.428 146.981 175.491 143.344 175.491 143.344L124.178 144.954Z" fill="#FFBDA7"/>
<path d="M163.322 121.456C164.568 121.183 165.862 121.237 167.08 121.612C168.299 121.987 169.4 122.67 170.276 123.596C170.945 124.275 171.496 125.067 172.213 125.692C172.906 126.253 173.655 126.741 174.448 127.147C176.545 128.329 178.728 129.859 179.263 132.373C179.516 133.838 179.873 135.282 180.332 136.695C180.578 137.353 180.867 137.979 181.135 138.632C181.552 139.721 181.809 140.865 181.9 142.028C182.087 143.676 181.726 145.34 180.873 146.762C179.696 148.527 176.749 149.902 174.737 148.752V144.992C174.202 143.563 172.678 142.135 171.79 140.889L166.575 133.636C166.163 133.063 160.011 124.328 159.926 124.382C159.926 124.36 161.338 121.927 163.322 121.456Z" fill="#F0997A"/>
<path opacity="0.1" d="M176.839 142.13C177 140.407 177.428 138.958 176.615 137.316C176.075 136.312 175.368 135.407 174.523 134.641C173.507 133.657 172.287 132.924 171.523 131.72C171.111 131.073 170.902 130.319 170.528 129.65C169.725 128.217 168.254 127.291 166.783 126.58C165.462 125.943 163.938 125.259 163.483 123.863C163.361 123.421 163.359 122.955 163.479 122.513C163.598 122.07 163.834 121.668 164.162 121.349C163.889 121.381 163.627 121.424 163.333 121.482C161.349 121.932 159.937 124.365 159.937 124.365C160.022 124.312 166.174 133.047 166.585 133.619L171.801 140.873C172.689 142.119 174.224 143.547 174.748 144.975V148.768C176.486 149.763 178.926 148.869 180.316 147.463C177.663 147.666 176.62 144.456 176.839 142.13Z" fill="black"/>
<path d="M159.925 124.36C162.911 126.05 165.658 128.132 168.093 130.549L168.195 130.651C168.307 130.763 168.419 130.87 168.515 130.988C172.474 135.144 174.726 139.921 174.726 144.992H124.183L127.766 142.927L129.088 142.162C129.141 142.13 129.2 142.103 129.254 142.066L159.925 124.36Z" fill="#FFBDA7"/>
<path opacity="0.3" d="M159.925 124.36C162.911 126.05 165.658 128.132 168.093 130.549L168.195 130.651C168.307 130.763 168.419 130.87 168.515 130.988C172.474 135.144 174.726 139.921 174.726 144.992H124.183L127.766 142.927L129.088 142.162C129.141 142.13 129.2 142.103 129.254 142.066L159.925 124.36Z" fill="white"/>
<path d="M130.26 145.666C130.664 145.777 131.059 145.918 131.442 146.088C132.463 146.532 133.485 147.158 134.651 147.11C135.817 147.062 136.748 146.452 137.78 146.04C139.46 145.379 141.311 145.295 143.044 145.8C144.247 146.153 145.349 146.779 146.526 147.196C147.703 147.613 149.051 147.8 150.185 147.276C151.319 146.752 152.052 145.639 153.18 145.136C154.715 144.468 156.475 145.136 157.994 145.837C159.514 146.538 161.204 147.313 162.809 146.832C163.98 146.479 164.948 145.484 166.173 145.415C167.681 145.324 168.885 146.698 169.484 148.089C169.816 148.843 170.345 149.827 171.148 149.619C171.8 149.448 171.961 148.603 171.95 147.923C171.939 147.244 171.977 146.42 172.581 146.105C173.186 145.789 174.186 146.185 174.544 145.57C174.643 145.35 174.671 145.105 174.625 144.869C174.465 143.878 174.196 142.907 173.822 141.975C173.205 140.093 172.439 138.264 171.533 136.503C170.373 134.49 168.952 132.639 167.307 130.999C166.031 129.618 164.582 128.408 162.996 127.399C162.303 126.934 161.515 126.629 160.69 126.506C159.967 126.461 159.242 126.55 158.551 126.768C155.775 127.511 153.202 128.843 150.661 130.207C149.778 130.683 148.896 131.159 148.013 131.646C143.921 133.893 139.877 136.23 135.855 138.6C133.836 139.784 131.827 140.973 129.826 142.168L128.323 143.066C127.922 143.302 127.51 143.403 127.114 143.628C126.489 143.992 125.793 144.901 125.007 144.901C126.018 144.901 126.97 145.366 127.976 145.463C128.612 145.527 129.259 145.463 129.891 145.554L130.26 145.666Z" fill="#FFD2C3"/>
<path opacity="0.1" d="M162.028 134.405C163.392 133.619 163.826 132.496 163.328 131.501C163.03 130.959 162.577 130.518 162.028 130.233C160.908 129.663 159.669 129.366 158.412 129.366C157.156 129.366 155.917 129.663 154.796 130.233C153.844 130.768 153.341 131.495 153.304 132.212C153.267 132.929 153.748 133.817 154.796 134.405C155.918 134.971 157.156 135.266 158.412 135.266C159.668 135.266 160.907 134.971 162.028 134.405ZM151.533 136.711C150.327 136.099 148.994 135.78 147.642 135.78C146.29 135.78 144.957 136.099 143.751 136.711C142.729 137.299 142.189 138.069 142.146 138.85C142.103 139.631 142.627 140.562 143.751 141.209C144.957 141.819 146.29 142.136 147.642 142.136C148.994 142.136 150.327 141.819 151.533 141.209C152.999 140.364 153.47 139.155 152.93 138.085C152.611 137.499 152.125 137.02 151.533 136.711ZM166.88 138.037C165.864 137.731 164.806 137.583 163.745 137.599C160.178 137.631 157.326 139.321 157.38 141.38C157.407 142.359 158.086 143.247 159.183 143.9C160.636 144.704 162.278 145.101 163.938 145.05C167.506 145.018 170.357 143.327 170.303 141.268C170.25 139.84 168.875 138.626 166.88 138.037ZM136.251 139.107L129.255 143.14C129.201 143.172 127.992 142.766 127.939 142.803L127.195 143.226C127.377 143.381 128.319 144.194 128.543 144.328C129.885 145.075 131.405 145.445 132.94 145.398C136.246 145.371 138.883 143.793 138.824 141.899C138.803 140.739 137.786 139.722 136.251 139.107Z" fill="black"/>
<path d="M163.728 136.476C164.789 136.461 165.847 136.608 166.863 136.915C168.874 137.53 170.249 138.739 170.286 140.124C170.34 142.178 167.489 143.869 163.921 143.901C162.262 143.953 160.619 143.558 159.166 142.756C158.069 142.103 157.39 141.215 157.363 140.231C157.315 138.199 160.16 136.503 163.728 136.476Z" fill="#B16668"/>
<path opacity="0.3" d="M163.958 137.626C163.767 137.581 163.572 137.552 163.375 137.54C162.949 137.483 162.515 137.517 162.102 137.641C161.69 137.764 161.309 137.975 160.984 138.257C160.942 138.291 160.908 138.334 160.885 138.383C160.863 138.432 160.853 138.486 160.856 138.541C160.856 138.674 161.032 138.733 161.166 138.765C161.869 138.926 162.598 138.937 163.306 138.797C163.648 138.733 164.376 138.482 164.338 138.011C164.322 137.797 164.156 137.69 163.958 137.626ZM165.665 137.925C165.968 138.016 166.284 138.06 166.601 138.054C166.693 138.056 166.785 138.036 166.868 137.995C167.093 137.861 166.98 137.738 166.815 137.653C166.72 137.602 166.62 137.564 166.515 137.54C166.226 137.485 165.928 137.504 165.649 137.594C165.568 137.594 165.472 137.663 165.467 137.749C165.461 137.834 165.568 137.899 165.665 137.925ZM168.307 138.995C167.622 138.385 166.702 138.61 165.927 138.952C165.679 139.051 165.462 139.216 165.301 139.429C165.253 139.491 165.23 139.569 165.237 139.648C165.246 139.708 165.274 139.765 165.317 139.808C165.548 140.026 165.855 140.144 166.173 140.14C166.768 140.216 167.373 140.166 167.949 139.996C168.095 139.954 168.232 139.883 168.35 139.787C168.407 139.738 168.454 139.677 168.486 139.609C168.518 139.541 168.536 139.467 168.537 139.391C168.528 139.312 168.502 139.236 168.463 139.167C168.423 139.098 168.37 139.038 168.307 138.99V138.995ZM162.83 139.53C162.664 139.53 161.99 139.648 161.894 139.878C161.861 139.953 161.894 140.038 162.017 140.14C162.259 140.26 162.527 140.321 162.798 140.316C163.095 140.354 163.398 140.306 163.669 140.177C163.755 140.135 163.841 140.065 163.841 139.969C163.836 139.932 163.824 139.897 163.805 139.865C163.785 139.834 163.759 139.807 163.728 139.787C163.467 139.6 163.149 139.511 162.83 139.535V139.53ZM160.631 139.53C159.979 139.102 159.026 139.418 158.433 139.819C158.331 139.88 158.244 139.962 158.176 140.06C158.144 140.109 158.124 140.165 158.118 140.224C158.111 140.282 158.118 140.341 158.139 140.397C158.208 140.508 158.317 140.59 158.443 140.627C159.095 140.875 159.814 140.875 160.465 140.627C160.641 140.575 160.792 140.463 160.893 140.311C160.95 140.173 160.954 140.019 160.906 139.877C160.858 139.736 160.76 139.616 160.631 139.541V139.53ZM162.514 141.199C162.327 141.137 162.127 141.119 161.932 141.146C161.736 141.173 161.549 141.244 161.385 141.354C161.294 141.418 161.204 141.525 161.236 141.632C161.26 141.691 161.303 141.741 161.359 141.771C161.64 141.933 161.96 142.012 162.284 142.001C162.512 142.024 162.742 141.981 162.947 141.878C162.99 141.857 163.025 141.823 163.049 141.782C163.108 141.675 163.049 141.547 162.947 141.461C162.824 141.345 162.676 141.259 162.514 141.21V141.199ZM167.328 141.354C166.424 140.969 165.189 140.958 164.504 141.739C164.439 141.807 164.393 141.889 164.37 141.98C164.372 142.067 164.4 142.151 164.451 142.222C164.502 142.292 164.572 142.346 164.654 142.376C164.843 142.453 165.043 142.497 165.247 142.504C165.921 142.547 166.597 142.451 167.232 142.221C167.353 142.183 167.465 142.124 167.564 142.044C167.611 142.005 167.649 141.955 167.673 141.898C167.697 141.841 167.707 141.779 167.703 141.718C167.649 141.547 167.467 141.434 167.301 141.365L167.328 141.354Z" fill="#FFBDA7"/>
<path d="M162.027 129.137C162.576 129.421 163.029 129.863 163.327 130.405C163.824 131.399 163.391 132.517 162.027 133.304C160.907 133.874 159.668 134.171 158.411 134.171C157.154 134.171 155.915 133.874 154.795 133.304C153.725 132.705 153.249 131.908 153.303 131.116C153.356 130.324 153.838 129.682 154.795 129.137C155.915 128.567 157.154 128.27 158.411 128.27C159.668 128.27 160.907 128.567 162.027 129.137Z" fill="#B16668"/>
<path opacity="0.3" d="M158.412 129.757C158.92 129.917 159.456 129.968 159.985 129.907C160.099 129.908 160.212 129.885 160.317 129.838C160.367 129.811 160.408 129.771 160.436 129.722C160.464 129.672 160.476 129.616 160.472 129.559C160.441 129.468 160.378 129.39 160.295 129.34C160.06 129.186 159.79 129.093 159.51 129.07C159.23 129.046 158.948 129.093 158.691 129.206C158.534 129.264 158.403 129.376 158.321 129.522C158.311 129.545 158.305 129.569 158.305 129.594C158.305 129.619 158.311 129.644 158.321 129.666C158.34 129.706 158.373 129.738 158.412 129.757ZM156.717 130.795C157.674 130.415 156.69 129.65 156.086 129.618C155.722 129.618 154.021 130.089 154.711 130.608C154.802 130.669 154.904 130.715 155.01 130.741C155.557 130.951 156.158 130.97 156.717 130.795ZM157.856 131.608C158.328 131.751 158.818 131.825 159.311 131.827C159.491 131.841 159.672 131.825 159.846 131.779C160.011 131.724 160.154 131.619 160.258 131.48C160.319 131.407 160.36 131.319 160.376 131.225C160.392 131.131 160.383 131.034 160.349 130.945C160.283 130.832 160.184 130.742 160.065 130.688C159.384 130.343 158.599 130.263 157.861 130.463C157.713 130.51 157.576 130.588 157.46 130.693C157.403 130.746 157.358 130.81 157.331 130.883C157.303 130.955 157.292 131.033 157.3 131.111C157.348 131.367 157.626 131.522 157.878 131.619L157.856 131.608ZM162.478 130.64C162.261 130.423 161.971 130.297 161.665 130.287C161.354 130.249 161.066 130.287 161.023 130.533C161.023 130.629 161.092 130.715 161.173 130.768C161.445 130.945 161.758 131.05 162.082 131.073C162.151 131.086 162.223 131.081 162.29 131.06C162.357 131.038 162.418 131.001 162.467 130.95C162.5 130.906 162.52 130.854 162.526 130.799C162.531 130.745 162.522 130.69 162.499 130.64H162.478ZM155.112 132.154C155.097 132.244 155.107 132.338 155.142 132.423C155.177 132.508 155.235 132.581 155.31 132.635C155.66 132.919 156.079 133.104 156.524 133.17C156.938 133.266 157.366 133.284 157.787 133.223C157.99 133.186 158.215 133.09 158.257 132.886C158.262 132.815 158.249 132.744 158.221 132.678C158.194 132.612 158.151 132.553 158.097 132.507C157.717 132.154 155.39 131.389 155.112 132.154ZM161.173 132.352C160.904 132.223 160.608 132.16 160.31 132.17C160.012 132.179 159.721 132.26 159.461 132.405C159.381 132.448 159.295 132.501 159.279 132.587C159.263 132.672 159.397 132.822 159.525 132.87C159.67 132.925 159.821 132.961 159.974 132.977C160.252 133.004 161.782 132.801 161.178 132.346L161.173 132.352Z" fill="#FFBDA7"/>
<path d="M151.532 135.615C152.123 135.92 152.609 136.395 152.928 136.979C153.463 138.049 152.997 139.257 151.532 140.103C150.325 140.712 148.992 141.029 147.64 141.029C146.289 141.029 144.956 140.712 143.749 140.103C142.626 139.45 142.091 138.594 142.144 137.744C142.198 136.893 142.727 136.203 143.749 135.604C144.956 134.994 146.289 134.677 147.642 134.679C148.994 134.681 150.327 135.001 151.532 135.615Z" fill="#B16668"/>
<path opacity="0.3" d="M151.806 136.791C151.59 136.49 151.293 136.255 150.95 136.113C150.607 135.971 150.231 135.928 149.864 135.989C149.653 136.005 149.453 136.087 149.292 136.224C149.214 136.295 149.162 136.39 149.144 136.493C149.125 136.597 149.142 136.703 149.19 136.797C149.264 136.894 149.361 136.97 149.474 137.016C149.918 137.257 150.373 137.481 150.827 137.695C151.012 137.795 151.213 137.86 151.421 137.888C151.523 137.898 151.625 137.881 151.719 137.84C151.813 137.799 151.894 137.734 151.956 137.652C152.018 137.51 152.036 137.353 152.01 137.2C151.983 137.047 151.912 136.905 151.806 136.791ZM149.132 137.487C148.674 137.367 148.188 137.42 147.768 137.636C147.58 137.733 147.388 137.915 147.441 138.118C147.47 138.189 147.514 138.252 147.57 138.303C147.627 138.354 147.694 138.391 147.768 138.412C148.036 138.524 148.322 138.589 148.613 138.605C148.865 138.634 149.119 138.578 149.335 138.444C149.763 138.145 149.57 137.642 149.132 137.503V137.487ZM146.195 137.23C146.598 137.189 146.98 137.033 147.297 136.781C148.158 135.946 146.029 135.497 145.494 135.54C144.959 135.582 143.087 136.358 143.633 137.144C143.708 137.229 143.802 137.295 143.906 137.339C144.011 137.383 144.124 137.402 144.237 137.396C144.894 137.428 145.553 137.373 146.195 137.23ZM147.928 135.909C148.133 136.053 148.387 136.111 148.634 136.069C148.688 136.065 148.741 136.049 148.789 136.024C148.837 135.998 148.879 135.962 148.912 135.919C148.949 135.845 148.958 135.76 148.936 135.68C148.914 135.6 148.864 135.531 148.795 135.486C148.652 135.4 148.49 135.349 148.324 135.336C148.003 135.299 147.671 135.374 147.789 135.727C147.817 135.796 147.866 135.856 147.928 135.898V135.909ZM145.895 138.214C145.425 138.105 144.934 138.131 144.478 138.289C144.332 138.318 144.195 138.381 144.077 138.471C144.019 138.516 143.975 138.577 143.95 138.646C143.926 138.715 143.921 138.79 143.938 138.861C143.977 138.94 144.033 139.008 144.103 139.061C144.172 139.114 144.253 139.15 144.339 139.166C144.857 139.332 145.399 139.412 145.944 139.402C146.058 139.417 146.174 139.404 146.281 139.363C146.389 139.322 146.484 139.254 146.559 139.166C146.767 138.776 146.216 138.337 145.895 138.214ZM148.752 139.476C148.286 139.14 147.463 139.37 147.008 139.61C146.885 139.674 146.751 139.776 146.757 139.915C146.762 140.054 146.901 140.14 147.024 140.188C147.448 140.336 147.902 140.374 148.345 140.3C148.586 140.274 148.88 140.199 148.944 139.974C148.967 139.881 148.961 139.784 148.926 139.695C148.892 139.606 148.831 139.53 148.752 139.476ZM151.079 138.631C150.704 138.562 150.196 138.926 149.923 139.134C149.875 139.172 149.822 139.225 149.827 139.284C149.832 139.343 149.934 139.396 150.02 139.407C150.277 139.435 150.537 139.421 150.79 139.364C151.079 139.3 151.614 138.733 151.079 138.631Z" fill="#FFBDA7"/>
<path d="M129.089 142.14L127.938 142.809C128.128 142.967 128.33 143.108 128.543 143.231C129.885 143.979 131.404 144.349 132.94 144.301C136.246 144.275 138.883 142.697 138.824 140.803C138.792 139.642 137.754 138.631 136.24 138.021L129.244 142.049C129.201 142.081 129.142 142.108 129.089 142.14Z" fill="#B16668"/>
<g opacity="0.3">
<path d="M133.287 143.156C134.034 143.283 134.801 143.184 135.491 142.873C135.807 142.728 136.304 142.434 136.053 142.054C135.957 141.945 135.833 141.864 135.694 141.82C135.556 141.776 135.408 141.77 135.266 141.803C134.485 141.906 133.728 142.147 133.031 142.514C132.942 142.552 132.869 142.62 132.827 142.707C132.81 142.767 132.812 142.831 132.833 142.889C132.854 142.948 132.893 142.998 132.945 143.033C133.047 143.102 133.165 143.144 133.287 143.156Z" fill="#FFBDA7"/>
<path d="M134.982 139.723C134.897 139.784 134.827 139.864 134.779 139.957C134.731 140.05 134.705 140.153 134.704 140.258C134.724 140.358 134.766 140.453 134.827 140.535C134.888 140.618 134.967 140.686 135.057 140.734C135.316 140.901 135.606 141.011 135.911 141.058C136.215 141.105 136.525 141.088 136.822 141.006C137.047 140.962 137.254 140.851 137.415 140.688C137.576 140.525 137.685 140.317 137.726 140.092C137.733 140.01 137.72 139.927 137.689 139.851C137.634 139.754 137.555 139.673 137.459 139.616C137.09 139.362 136.649 139.236 136.203 139.255C135.756 139.274 135.327 139.438 134.982 139.723Z" fill="#FFBDA7"/>
<path d="M129.516 143.012C130.097 143.115 130.694 143.091 131.265 142.943C131.462 142.906 131.646 142.819 131.8 142.691C131.88 142.63 131.941 142.547 131.976 142.452C132.011 142.358 132.019 142.255 131.998 142.156C131.907 141.734 131.287 141.381 130.672 141.22L129.27 142.028C129.217 142.065 129.158 142.092 129.104 142.124L128.842 142.279C128.815 142.627 129.013 142.921 129.516 143.012Z" fill="#FFBDA7"/>
<path d="M133.303 140.616C133.046 140.616 132.324 140.686 132.362 141.097C132.362 141.231 132.522 141.306 132.656 141.338C133.005 141.43 133.371 141.443 133.726 141.376C133.988 141.327 134.293 141.13 134.1 140.841C134.021 140.746 133.908 140.684 133.785 140.67C133.627 140.631 133.465 140.613 133.303 140.616Z" fill="#FFBDA7"/>
</g>
<path d="M127.793 16.6147L105.001 29.8001C104.551 30.0568 104.188 30.688 104.188 31.9076V59.0486C104.2 59.3325 104.281 59.6091 104.424 59.855C104.566 60.1008 104.766 60.3086 105.006 60.4608L108.215 62.3008C108.469 62.4275 108.748 62.4934 109.031 62.4934C109.314 62.4934 109.594 62.4275 109.847 62.3008L132.644 49.1101C132.881 48.9562 133.078 48.7486 133.22 48.5041C133.361 48.2597 133.442 47.9853 133.457 47.7033V19.8508C133.442 19.5696 133.361 19.2959 133.219 19.0523C133.078 18.8087 132.881 18.6021 132.644 18.4494L129.435 16.6147C129.181 16.4851 128.899 16.4175 128.614 16.4175C128.328 16.4175 128.047 16.4851 127.793 16.6147Z" fill="#E95322"/>
<path opacity="0.15" d="M109.874 62.2952C109.62 62.4191 109.341 62.4835 109.058 62.4835C108.776 62.4835 108.497 62.4191 108.243 62.2952L105.033 60.4552C104.791 60.3051 104.59 60.0977 104.447 59.8515C104.305 59.6052 104.225 59.3275 104.215 59.043V31.9073C104.177 31.3862 104.277 30.8642 104.504 30.3936L109.318 33.1697C109.161 33.408 109.078 33.6869 109.077 33.9721V61.8245C109.061 62.3113 109.398 62.568 109.874 62.2952Z" fill="black"/>
<path d="M101.958 51.8645C101.45 51.5596 97.5557 49.3611 97.4274 49.2916C97.332 49.2328 97.2509 49.1537 97.1897 49.0599C97.1286 48.9661 97.0889 48.86 97.0736 48.7491C97.0582 48.6381 97.0676 48.5252 97.101 48.4183C97.1345 48.3115 97.1911 48.2133 97.2669 48.1309L104.189 40.1982L109.062 42.9904L101.824 50.7198C101.752 50.801 101.697 50.8967 101.664 51.0006C101.632 51.1044 101.621 51.214 101.634 51.3222C101.646 51.4304 101.682 51.5347 101.738 51.6281C101.794 51.7216 101.869 51.8022 101.958 51.8645Z" fill="#E95322"/>
<path d="M132.645 19.3798L109.859 32.5652C109.622 32.719 109.425 32.9266 109.283 33.1711C109.142 33.4156 109.061 33.69 109.045 33.9719V42.9904L101.803 50.7198C101.702 50.8183 101.632 50.9439 101.601 51.0814C101.571 51.219 101.581 51.3624 101.63 51.4944C101.679 51.6264 101.766 51.7412 101.879 51.825C101.992 51.9087 102.128 51.9577 102.268 51.9661L109.045 51.474V61.8244C109.045 62.3593 109.409 62.5519 109.859 62.2951L132.645 49.1097C132.882 48.9559 133.079 48.7483 133.221 48.5038C133.362 48.2593 133.443 47.9849 133.458 47.7029V19.8505C133.475 19.3316 133.111 19.123 132.645 19.3798Z" fill="#E95322"/>
<path opacity="0.35" d="M132.645 19.3798L109.859 32.5652C109.622 32.719 109.425 32.9266 109.283 33.1711C109.142 33.4156 109.061 33.69 109.045 33.9719V42.9904L101.803 50.7198C101.702 50.8183 101.632 50.9439 101.601 51.0814C101.571 51.219 101.581 51.3624 101.63 51.4944C101.679 51.6264 101.766 51.7412 101.879 51.825C101.992 51.9087 102.128 51.9577 102.268 51.9661L109.045 51.474V61.8244C109.045 62.3593 109.409 62.5519 109.859 62.2951L132.645 49.1097C132.882 48.9559 133.079 48.7483 133.221 48.5038C133.362 48.2593 133.443 47.9849 133.458 47.7029V19.8505C133.475 19.3316 133.111 19.123 132.645 19.3798Z" fill="white"/>
<path d="M113.554 42.6215C113.561 41.1491 113.867 39.6934 114.452 38.3423C114.98 36.9334 115.926 35.72 117.164 34.8654C119.02 33.7956 120.572 36.0101 120.818 38.6418C121.037 35.7373 122.551 31.6881 124.407 30.6183C125.477 29.9817 126.466 30.1368 127.14 30.9018C127.819 31.8285 128.151 32.9647 128.076 34.1112C128.103 38.5616 125.439 42.5841 123.214 46.8205L120.812 50.9125L118.491 49.586C116.26 47.9652 113.575 47.0719 113.554 42.6215Z" fill="#FAFAFA"/>
<path d="M222.99 198.245C226.071 191.939 227.034 186.611 227.195 179.599C218.764 181.899 209.628 186.413 205.734 193.752C201.84 201.091 202.787 205.975 204.541 210.291C205.884 210.543 210.473 209.992 213.603 208.537C218.288 206.36 220.674 202.99 222.99 198.245Z" fill="#455A64"/>
<path d="M213.165 193.918C214.444 192.276 215.808 190.709 217.23 189.2C218.835 187.494 220.643 186.125 222.387 184.595C222.595 184.408 222.751 184.68 222.579 184.857C221.135 186.317 219.905 188.029 218.53 189.575C217.156 191.121 215.856 192.752 214.567 194.389C213.277 196.026 212.192 197.555 211.079 199.203C210.501 200.048 209.924 200.899 209.319 201.728C208.586 202.744 207.714 203.648 207.003 204.675C206.907 204.814 206.73 204.771 206.805 204.595C207.201 203.648 207.468 202.648 207.934 201.738C208.435 200.768 208.985 199.824 209.581 198.909C210.689 197.176 211.913 195.528 213.165 193.918Z" fill="#37474F"/>
</svg>
