<svg width="165" height="128" viewBox="0 0 165 128" fill="none" xmlns="http://www.w3.org/2000/svg">
<path opacity="0.2" d="M7.04003 57.5534C5.31067 62.664 4.01199 67.9103 3.15759 73.2374L83.0806 97.8216L7.04003 57.5534ZM73.8265 0L83.0806 97.8216L92.3312 0H73.8265ZM38.6287 13.8584L83.0806 97.8216L54.5054 4.91263C48.8826 7.26563 43.5542 10.2679 38.6287 13.8584ZM14.451 41.053L83.0841 97.8181L24.434 26.9389C20.6598 31.3113 17.3166 36.0379 14.451 41.053ZM159.125 57.5534L83.0877 97.8216L163.007 73.2374C162.15 67.9105 160.85 62.6643 159.121 57.5534H159.125ZM83.0877 97.8216H163.876C164.096 95.287 164.22 92.7267 164.248 90.1408L83.0877 97.8216ZM2.28859 97.8216H83.0806L1.91016 90.1408C1.93819 92.7314 2.062 95.2917 2.28158 97.8216H2.28859ZM141.724 26.9389L83.0806 97.8216L151.71 41.0565C148.844 36.0401 145.499 31.3122 141.724 26.9389ZM111.652 4.91263L83.0806 97.8216L127.543 13.8584C122.613 10.2679 117.28 7.26563 111.652 4.91263Z" fill="#E95322"/>
<path d="M142.098 132.178C153.808 132.178 163.301 126.697 163.301 119.935C163.301 113.174 153.808 107.692 142.098 107.692C130.388 107.692 120.896 113.174 120.896 119.935C120.896 126.697 130.388 132.178 142.098 132.178Z" fill="#E0E0E0"/>
<path d="M37.7593 132.332C58.6035 132.332 75.501 122.576 75.501 110.541C75.501 98.5059 58.6035 88.7495 37.7593 88.7495C16.9151 88.7495 0.0175781 98.5059 0.0175781 110.541C0.0175781 122.576 16.9151 132.332 37.7593 132.332Z" fill="#E0E0E0"/>
<path d="M132.967 129.564L122.529 135.591L98.6699 121.817L109.108 115.79L132.967 129.564Z" fill="#E0E0E0"/>
<path d="M120.973 64.6875L163.252 64.7401L158.918 120.303H158.879C158.693 122.325 157.103 124.322 154.075 125.868C147.617 129.161 136.965 129.161 130.286 125.868C127.154 124.322 125.51 122.325 125.314 120.303H125.276L120.973 64.6875Z" fill="#455A64"/>
<path d="M118.982 64.8174V56.0223H123.776C124.454 55.5987 125.156 55.215 125.878 54.873C135.059 50.5 149.706 50.5 158.567 54.873C159.256 55.2164 159.924 55.6001 160.568 56.0223H165.214V64.8174C165.214 67.6802 162.996 70.5465 158.557 72.7295C149.681 77.1025 135.048 77.1025 125.868 72.7295C121.278 70.5465 118.982 67.6802 118.982 64.8174Z" fill="#E6E6E6"/>
<path d="M125.879 48.1101C135.059 43.7406 149.706 43.7406 158.568 48.1101C167.429 52.4796 167.44 59.5683 158.568 63.9378C149.695 68.3073 135.059 68.3108 125.879 63.9378C116.698 59.5648 116.688 52.4831 125.879 48.1101Z" fill="#F5F5F5"/>
<path d="M124.214 106.599C138.563 107.826 155.165 98.4524 161.63 85.3894L162.243 77.5054C156.209 91.4093 138.64 101.529 123.699 99.9801L124.214 106.599Z" fill="#E95322"/>
<path d="M124.571 111.204C138.535 112.223 154.527 103.309 161.213 90.7858L161.63 85.3896C155.165 98.4526 138.563 107.815 124.214 106.599L124.571 111.204Z" fill="#E95322"/>
<path opacity="0.3" d="M124.571 111.204C138.535 112.223 154.527 103.309 161.213 90.7858L161.63 85.3896C155.165 98.4526 138.563 107.815 124.214 106.599L124.571 111.204Z" fill="white"/>
<path d="M124.848 114.799C138.514 115.664 154.072 107.09 160.887 94.9414L161.213 90.7856C154.527 103.309 138.535 112.223 124.571 111.204L124.848 114.799Z" fill="#E95322"/>
<path opacity="0.6" d="M124.848 114.799C138.514 115.664 154.072 107.09 160.887 94.9414L161.213 90.7856C154.527 103.309 138.535 112.223 124.571 111.204L124.848 114.799Z" fill="white"/>
<path d="M139.853 54.9291C140.569 54.6307 141.337 54.4771 142.113 54.4771C142.889 54.4771 143.657 54.6307 144.373 54.9291C145.599 55.5353 145.599 56.5164 144.373 57.1191C143.657 57.4175 142.889 57.5711 142.113 57.5711C141.337 57.5711 140.569 57.4175 139.853 57.1191C138.584 56.5164 138.584 55.5353 139.853 54.9291Z" fill="#37474F"/>
<path d="M137.372 33.5966L131.029 38.3621L132.799 41.4562L138.843 36.9465C139.544 36.4174 140.459 37.0131 140.466 37.9977L140.641 56.0223H143.479V37.6017C143.465 33.884 140.017 31.6239 137.372 33.5966Z" fill="#37474F"/>
<path d="M132.645 39.3538C133.121 40.2123 133.192 41.1584 132.799 41.4562C132.407 41.7541 131.702 41.3161 131.226 40.4576C130.749 39.5991 130.679 38.653 131.072 38.3552C131.464 38.0573 132.186 38.5023 132.645 39.3538Z" fill="#263238"/>
<path d="M106.115 87.8035C106.115 78.0694 112.037 73.5947 119.339 77.8101C126.642 82.0254 132.56 93.3363 132.56 103.07L129.119 128.359L109.556 117.066L106.115 87.8035Z" fill="#E95322"/>
<path opacity="0.15" d="M106.115 87.8035C106.115 78.0694 112.037 73.5947 119.339 77.8101C126.642 82.0254 132.56 93.3363 132.56 103.07L129.119 128.359L109.556 117.066L106.115 87.8035Z" fill="white"/>
<path d="M109.556 117.066L101.497 121.716L98.0596 92.457L106.119 87.8037L109.556 117.066Z" fill="#E95322"/>
<path d="M106.266 113.236L108.138 82.6736L104.945 81.8291L103.432 111.813L106.266 113.236Z" fill="#FFBDA7"/>
<path d="M108.137 82.6738L110.257 82.2988L108.887 110.18L106.266 113.236L108.137 82.6738Z" fill="#F0997A"/>
<path d="M110.257 82.2987L106.266 80.4766L104.945 81.8291L108.137 82.6736L110.257 82.2987Z" fill="#FFBDA7"/>
<path opacity="0.3" d="M110.257 82.2987L106.266 80.4766L104.945 81.8291L108.137 82.6736L110.257 82.2987Z" fill="white"/>
<path d="M121.659 122.42L130.384 93.0702L127.462 91.5249L119.217 120.391L121.659 122.42Z" fill="#FFBDA7"/>
<path d="M130.384 93.0698L132.532 93.1855L124.9 120.033L121.659 122.419L130.384 93.0698Z" fill="#F0997A"/>
<path d="M132.532 93.1859L129.056 90.5088L127.462 91.525L130.384 93.0702L132.532 93.1859Z" fill="#FFBDA7"/>
<path opacity="0.3" d="M132.532 93.1859L129.056 90.5088L127.462 91.525L130.384 93.0702L132.532 93.1859Z" fill="white"/>
<path d="M111.715 112.574L120.447 83.2274L117.528 81.6821L109.276 110.548L111.715 112.574Z" fill="#FFBDA7"/>
<path d="M120.447 83.2271L122.595 83.3427L114.96 110.187L111.715 112.573L120.447 83.2271Z" fill="#F0997A"/>
<path d="M122.595 83.3431L119.119 80.666L117.528 81.6822L120.447 83.2274L122.595 83.3431Z" fill="#FFBDA7"/>
<path opacity="0.3" d="M122.595 83.3431L119.119 80.666L117.528 81.6822L120.447 83.2274L122.595 83.3431Z" fill="white"/>
<path d="M111.781 110.065L113.656 79.5026L110.46 78.1221L108.946 108.642L111.781 110.065Z" fill="#FFBDA7"/>
<path d="M113.656 79.5025L115.772 78.4058L114.402 107.009L111.781 110.065L113.656 79.5025Z" fill="#F0997A"/>
<path d="M115.772 78.4057L112.766 77.4946L110.46 78.1219L113.656 79.5024L115.772 78.4057Z" fill="#FFBDA7"/>
<path opacity="0.3" d="M115.772 78.4057L112.766 77.4946L110.46 78.1219L113.656 79.5024L115.772 78.4057Z" fill="white"/>
<path d="M103.873 118.001L102.696 87.4042L99.6543 86.4932L101.764 116.726L103.873 118.001Z" fill="#FFBDA7"/>
<path d="M102.695 87.4042L105.264 84.4854L106.175 114.7L103.873 118.001L102.695 87.4042Z" fill="#F0997A"/>
<path d="M105.264 84.4853L101.725 84.1104L99.6543 86.4931L102.696 87.4041L105.264 84.4853Z" fill="#FFBDA7"/>
<path opacity="0.3" d="M105.264 84.4853L101.725 84.1104L99.6543 86.4931L102.696 87.4041L105.264 84.4853Z" fill="white"/>
<path d="M115.481 120.987L123.768 91.5108L120.394 88.5044L113.011 118.996L115.481 120.987Z" fill="#FFBDA7"/>
<path d="M123.768 91.5108L127.111 89.5205L118.688 118.551L115.481 120.987L123.768 91.5108Z" fill="#F0997A"/>
<path d="M127.112 89.5205L123.096 86.875L120.395 88.5044L123.769 91.5108L127.112 89.5205Z" fill="#FFBDA7"/>
<path opacity="0.3" d="M127.112 89.5205L123.096 86.875L120.395 88.5044L123.769 91.5108L127.112 89.5205Z" fill="white"/>
<path d="M114.707 121.666L107.605 91.882L104.423 91.0796L112.808 121.309L114.707 121.666Z" fill="#FFBDA7"/>
<path d="M107.604 91.8823L109.01 89.1982L115.772 118.66L114.707 121.666L107.604 91.8823Z" fill="#F0997A"/>
<path d="M109.01 89.1983L105.993 88.3398L104.423 91.08L107.605 91.8824L109.01 89.1983Z" fill="#FFBDA7"/>
<path opacity="0.3" d="M109.01 89.1983L105.993 88.3398L104.423 91.08L107.605 91.8824L109.01 89.1983Z" fill="white"/>
<path d="M119.777 126.961L125.874 96.9562L122.829 95.6772L117.167 125.16L119.777 126.961Z" fill="#FFBDA7"/>
<path d="M125.874 96.9559L128.026 96.8823L122.794 124.298L119.777 126.961L125.874 96.9559Z" fill="#F0997A"/>
<path d="M128.026 96.8826L124.325 94.5244L122.829 95.6772L125.874 96.9562L128.026 96.8826Z" fill="#FFBDA7"/>
<path opacity="0.3" d="M128.026 96.8826L124.325 94.5244L122.829 95.6772L125.874 96.9562L128.026 96.8826Z" fill="white"/>
<path d="M129.119 128.359L121.06 133.009L124.501 107.72L132.56 103.07L129.119 128.359Z" fill="#E95322"/>
<path d="M101.497 121.716L121.06 133.009L124.501 107.721L98.0596 92.457L101.497 121.716Z" fill="#E95322"/>
<path opacity="0.3" d="M101.497 121.716L121.06 133.009L124.501 107.721L98.0596 92.457L101.497 121.716Z" fill="white"/>
<path d="M61.1831 89.1771C48.2884 81.7346 27.3869 81.7346 14.4922 89.1771C8.05878 92.8914 4.85611 97.7549 4.85261 102.626C4.85261 103.677 4.85261 107.843 4.85261 108.88C4.83509 113.761 8.03776 118.646 14.4922 122.371C27.3869 129.817 48.2884 129.817 61.1831 122.371C67.6165 118.656 70.8192 113.793 70.8227 108.926C70.8227 107.875 70.8227 103.698 70.8227 102.654C70.8297 97.7725 67.627 92.8984 61.1831 89.1771Z" fill="#FFBDA7"/>
<path d="M37.8361 121.719C56.0697 121.719 70.8509 113.185 70.8509 102.657C70.8509 92.1295 56.0697 83.5952 37.8361 83.5952C19.6025 83.5952 4.82129 92.1295 4.82129 102.657C4.82129 113.185 19.6025 121.719 37.8361 121.719Z" fill="#F0997A"/>
<path d="M61.1831 81.3389C48.2884 73.8929 27.3869 73.8929 14.4922 81.3389C8.05878 85.0532 4.85611 89.9167 4.85261 94.7838C4.85261 95.835 4.85261 99.9978 4.85261 101.035C4.83509 105.92 8.03776 110.801 14.4922 114.539C27.3869 121.982 48.2884 121.982 61.1831 114.539C67.6165 110.825 70.8192 105.958 70.8227 101.091C70.8227 100.04 70.8227 95.8631 70.8227 94.8189C70.8297 89.9343 67.627 85.0567 61.1831 81.3389Z" fill="#B16668"/>
<path d="M37.8361 113.877C56.0697 113.877 70.8509 105.343 70.8509 94.8153C70.8509 84.2877 56.0697 75.7534 37.8361 75.7534C19.6025 75.7534 4.82129 84.2877 4.82129 94.8153C4.82129 105.343 19.6025 113.877 37.8361 113.877Z" fill="#9A4A4D"/>
<path d="M61.2399 87.8037H14.4508C9.22277 95.4179 9.22978 107.531 9.22277 109.918C9.21577 112.304 9.5101 113.803 13.3996 112.952C17.289 112.101 27.745 110.012 37.8436 110.012C47.9421 110.012 58.4016 112.097 62.2876 112.952C66.1735 113.807 66.4643 112.293 66.4573 109.918C66.4503 107.542 66.4538 95.4179 61.2399 87.8037Z" fill="#F0F0F0"/>
<path d="M10.3824 104.805C11.4721 106.379 12.7371 107.759 14.9692 108.309C16.8333 108.779 18.7955 108.604 20.6982 108.887C24.6192 109.48 27.2577 112.153 30.7688 113.565C32.2599 114.171 33.8687 114.431 35.4746 114.326C37.2565 114.146 38.9992 113.688 40.6396 112.97C43.2851 111.918 45.829 110.587 48.5586 109.77C50.6856 109.129 52.9597 108.814 55.1672 109.199C57.0068 109.522 58.8709 109.473 60.6265 108.642C63.8817 107.104 64.9819 102.896 67.9323 100.835C70.259 99.2094 73.6929 98.9256 75.0595 96.4377C76.0406 94.6542 75.4624 92.3205 74.1414 90.7717C72.8204 89.2229 70.9002 88.3189 68.9835 87.6181C65.4129 86.3321 61.6251 85.7505 57.8758 85.3615C49.3856 84.4855 40.8603 83.9809 32.3315 83.7567C23.8729 83.5359 15.74 83.2626 7.5827 85.8766C5.72557 86.4688 3.86494 87.1906 2.38274 88.4521C0.90054 89.7135 -0.16468 91.6057 0.0210325 93.5504C0.192729 95.376 1.86414 96.8372 3.3078 97.8183C4.30644 98.4946 5.45225 98.9431 6.40885 99.6789C8.2029 101.088 9.19454 103.067 10.3824 104.805Z" fill="#E95322"/>
<path d="M71.9166 84.8147L71.843 84.5519C68.8295 73.0237 54.7469 64.3442 37.854 64.3442C20.9612 64.3442 6.84002 73.0237 3.82657 84.5519L3.75649 84.8147C3.35988 86.0774 3.18443 87.3992 3.23789 88.7217C3.38506 93.7394 6.75943 98.7046 13.368 102.492C26.8935 110.306 48.8146 110.306 62.3436 102.492C68.9276 98.7046 72.3265 93.7324 72.4702 88.7217C72.5124 87.3972 72.3251 86.0753 71.9166 84.8147Z" fill="#FFBDA7"/>
<path d="M64.9465 96.5565C56.3161 103.137 34.2443 105.317 20.421 98.3331C6.59767 91.3496 5.98797 79.5516 10.3855 74.0713C7.1513 77.0917 4.84216 80.6518 3.82249 84.5518L3.75241 84.8146C3.35699 86.0775 3.18273 87.3993 3.23732 88.7216C3.38449 93.7393 6.75885 98.7045 13.3674 102.492C26.8929 110.306 48.814 110.306 62.343 102.492C68.9271 98.7045 72.326 93.7323 72.4696 88.7216C72.5118 87.3971 72.3245 86.0752 71.916 84.8146C71.916 84.8146 72.4626 90.8275 64.9465 96.5565Z" fill="#F0997A"/>
<g opacity="0.7">
<path d="M64.7967 92.2009C64.9509 91.9882 65.1648 91.826 65.4112 91.7348C65.6576 91.6437 65.9255 91.6277 66.181 91.6888C66.4366 91.75 66.6682 91.8855 66.8467 92.0784C67.0251 92.2712 67.1424 92.5126 67.1836 92.7721C67.2248 93.0316 67.1881 93.2975 67.0781 93.5361C66.9682 93.7747 66.7899 93.9754 66.5659 94.1126C66.3419 94.2499 66.0822 94.3177 65.8197 94.3074C65.5572 94.297 65.3036 94.209 65.0911 94.0545C64.8064 93.8476 64.6156 93.5362 64.5604 93.1886C64.5052 92.8411 64.5902 92.4858 64.7967 92.2009Z" fill="white"/>
<path d="M66.7828 80.2489C66.9373 80.0367 67.1513 79.875 67.3977 79.7844C67.644 79.6937 67.9117 79.6781 68.167 79.7395C68.4222 79.8009 68.6535 79.9366 68.8317 80.1294C69.0099 80.3222 69.1269 80.5635 69.168 80.8228C69.2091 81.0821 69.1724 81.3477 69.0626 81.5862C68.9528 81.8246 68.7748 82.0252 68.551 82.1625C68.3273 82.2998 68.0678 82.3678 67.8055 82.3577C67.5432 82.3477 67.2897 82.2601 67.0771 82.106C66.9357 82.0036 66.8159 81.8742 66.7245 81.7253C66.6331 81.5765 66.572 81.4111 66.5447 81.2385C66.5174 81.066 66.5243 80.8898 66.5652 80.72C66.606 80.5502 66.68 80.3901 66.7828 80.2489Z" fill="white"/>
<path d="M54.0465 97.7792C54.201 97.567 54.415 97.4053 54.6613 97.3146C54.9077 97.224 55.1754 97.2083 55.4307 97.2698C55.6859 97.3312 55.9172 97.4668 56.0954 97.6597C56.2735 97.8525 56.3906 98.0938 56.4317 98.3531C56.4728 98.6123 56.4361 98.878 56.3263 99.1164C56.2165 99.3549 56.0384 99.5555 55.8147 99.6928C55.5909 99.8301 55.3315 99.898 55.0692 99.888C54.8068 99.8779 54.5534 99.7904 54.3408 99.6363C54.1994 99.5338 54.0795 99.4045 53.9882 99.2556C53.8968 99.1067 53.8357 98.9413 53.8084 98.7688C53.781 98.5963 53.788 98.4201 53.8288 98.2503C53.8697 98.0805 53.9436 97.9204 54.0465 97.7792Z" fill="white"/>
<path d="M56.0328 85.8305C56.1873 85.6182 56.4013 85.4566 56.6477 85.3659C56.894 85.2752 57.1617 85.2596 57.417 85.321C57.6722 85.3824 57.9035 85.5181 58.0817 85.7109C58.2599 85.9037 58.3769 86.145 58.418 86.4043C58.4591 86.6636 58.4224 86.9293 58.3126 87.1677C58.2028 87.4062 58.0248 87.6067 57.801 87.744C57.5773 87.8814 57.3178 87.9493 57.0555 87.9392C56.7932 87.9292 56.5397 87.8416 56.3271 87.6876C56.1857 87.5851 56.0659 87.4557 55.9745 87.3069C55.8831 87.158 55.822 86.9926 55.7947 86.8201C55.7674 86.6476 55.7743 86.4714 55.8152 86.3016C55.856 86.1317 55.93 85.9717 56.0328 85.8305Z" fill="white"/>
<path d="M47.2655 79.4641C47.4197 79.2514 47.6335 79.0892 47.8799 78.998C48.1264 78.9069 48.3943 78.8908 48.6498 78.952C48.9053 79.0131 49.137 79.1487 49.3154 79.3415C49.4939 79.5344 49.6111 79.7758 49.6523 80.0353C49.6935 80.2948 49.6568 80.5606 49.5469 80.7993C49.4369 81.0379 49.2587 81.2385 49.0347 81.3758C48.8107 81.5131 48.551 81.5809 48.2884 81.5705C48.0259 81.5602 47.7724 81.4722 47.5598 81.3177C47.2752 81.1108 47.0843 80.7994 47.0291 80.4518C46.9739 80.1043 47.059 79.749 47.2655 79.4641Z" fill="white"/>
<path d="M58.0196 73.8926C58.1742 73.6801 58.3883 73.5182 58.6349 73.4275C58.8815 73.3367 59.1495 73.3211 59.4049 73.3827C59.6604 73.4443 59.8918 73.5803 60.0699 73.7734C60.2481 73.9666 60.3649 74.2083 60.4056 74.4679C60.4464 74.7275 60.4092 74.9933 60.2987 75.2317C60.1883 75.4702 60.0097 75.6705 59.7854 75.8074C59.561 75.9442 59.3012 76.0115 59.0386 76.0006C58.7761 75.9897 58.5227 75.9012 58.3105 75.7462C58.0264 75.5388 57.8362 75.2271 57.7817 74.8796C57.7272 74.5321 57.8127 74.1771 58.0196 73.8926Z" fill="white"/>
<path d="M49.2522 67.5154C49.4064 67.3027 49.6203 67.1404 49.8667 67.0493C50.1131 66.9581 50.381 66.9421 50.6365 67.0033C50.8921 67.0644 51.1237 67.2 51.3021 67.3928C51.4806 67.5856 51.5978 67.8271 51.6391 68.0866C51.6803 68.346 51.6436 68.6119 51.5336 68.8505C51.4237 69.0892 51.2454 69.2898 51.0214 69.4271C50.7974 69.5644 50.5377 69.6322 50.2752 69.6218C50.0127 69.6115 49.7591 69.5235 49.5466 69.369C49.4053 69.2668 49.2855 69.1378 49.1942 68.9892C49.1029 68.8407 49.0418 68.6755 49.0144 68.5033C48.9871 68.3311 48.994 68.1552 49.0348 67.9856C49.0756 67.8161 49.1495 67.6563 49.2522 67.5154Z" fill="white"/>
<path d="M43.2955 103.361C43.45 103.149 43.664 102.987 43.9104 102.897C44.1567 102.806 44.4244 102.79 44.6797 102.852C44.9349 102.913 45.1662 103.049 45.3444 103.242C45.5226 103.434 45.6396 103.676 45.6807 103.935C45.7218 104.194 45.6851 104.46 45.5753 104.698C45.4655 104.937 45.2875 105.137 45.0637 105.275C44.84 105.412 44.5805 105.48 44.3182 105.47C44.0559 105.46 43.8024 105.372 43.5898 105.218C43.4484 105.116 43.3286 104.986 43.2372 104.838C43.1458 104.689 43.0847 104.523 43.0574 104.351C43.03 104.178 43.037 104.002 43.0779 103.832C43.1187 103.663 43.1927 103.502 43.2955 103.361Z" fill="white"/>
<path d="M34.5292 96.9944C34.6834 96.7817 34.8972 96.6195 35.1436 96.5283C35.39 96.4371 35.658 96.4211 35.9135 96.4823C36.169 96.5434 36.4006 96.679 36.5791 96.8718C36.7575 97.0646 36.8748 97.3061 36.916 97.5656C36.9572 97.825 36.9205 98.0909 36.8106 98.3295C36.7006 98.5682 36.5224 98.7688 36.2984 98.9061C36.0743 99.0434 35.8146 99.1112 35.5521 99.1008C35.2896 99.0905 35.036 99.0025 34.8235 98.848C34.5389 98.6411 34.348 98.3296 34.2928 97.9821C34.2376 97.6345 34.3226 97.2793 34.5292 96.9944Z" fill="white"/>
<path d="M45.2862 91.4126C45.4408 91.2001 45.6549 91.0382 45.9015 90.9475C46.1481 90.8567 46.4161 90.8411 46.6715 90.9027C46.927 90.9643 47.1584 91.1003 47.3365 91.2935C47.5147 91.4866 47.6315 91.7283 47.6722 91.9879C47.713 92.2475 47.6758 92.5133 47.5653 92.7518C47.4549 92.9902 47.2763 93.1905 47.052 93.3274C46.8276 93.4643 46.5678 93.5315 46.3052 93.5206C46.0427 93.5097 45.7893 93.4212 45.5771 93.2663C45.293 93.0588 45.1028 92.7471 45.0483 92.3996C44.9938 92.0521 45.0793 91.6971 45.2862 91.4126Z" fill="white"/>
<path d="M36.5257 85.0456C36.6799 84.8329 36.8937 84.6707 37.1401 84.5796C37.3865 84.4884 37.6545 84.4724 37.91 84.5335C38.1655 84.5947 38.3971 84.7302 38.5756 84.9231C38.754 85.1159 38.8713 85.3573 38.9125 85.6168C38.9537 85.8763 38.917 86.1422 38.8071 86.3808C38.6971 86.6194 38.5189 86.8201 38.2949 86.9574C38.0708 87.0947 37.8112 87.1624 37.5486 87.1521C37.2861 87.1417 37.0325 87.0538 36.82 86.8993C36.6787 86.7971 36.5589 86.668 36.4676 86.5195C36.3763 86.3709 36.3152 86.2058 36.2879 86.0336C36.2605 85.8614 36.2675 85.6854 36.3083 85.5159C36.3491 85.3464 36.423 85.1866 36.5257 85.0456Z" fill="white"/>
<path d="M23.7782 102.576C23.9324 102.364 24.1462 102.201 24.3926 102.11C24.6391 102.019 24.907 102.003 25.1625 102.064C25.418 102.125 25.6497 102.261 25.8281 102.454C26.0066 102.647 26.1238 102.888 26.165 103.148C26.2062 103.407 26.1695 103.673 26.0596 103.912C25.9496 104.15 25.7714 104.351 25.5474 104.488C25.3234 104.625 25.0637 104.693 24.8011 104.683C24.5386 104.673 24.285 104.585 24.0725 104.43C23.7879 104.223 23.597 103.912 23.5418 103.564C23.4866 103.217 23.5717 102.861 23.7782 102.576Z" fill="white"/>
<path d="M38.502 73.0936C38.6565 72.8814 38.8705 72.7198 39.1168 72.6291C39.3632 72.5384 39.6309 72.5228 39.8862 72.5842C40.1414 72.6456 40.3727 72.7813 40.5509 72.9741C40.7291 73.1669 40.8461 73.4082 40.8872 73.6675C40.9283 73.9268 40.8916 74.1924 40.7818 74.4309C40.672 74.6693 40.4939 74.8699 40.2702 75.0072C40.0464 75.1446 39.787 75.2125 39.5247 75.2024C39.2624 75.1924 39.0089 75.1048 38.7963 74.9508C38.6545 74.8486 38.5343 74.7193 38.4427 74.5705C38.351 74.4217 38.2898 74.2561 38.2624 74.0835C38.2351 73.9109 38.2421 73.7345 38.2833 73.5646C38.3244 73.3947 38.3987 73.2347 38.502 73.0936Z" fill="white"/>
<path d="M29.7358 66.7268C29.89 66.5141 30.1038 66.3519 30.3503 66.2607C30.5967 66.1696 30.8646 66.1535 31.1201 66.2147C31.3756 66.2758 31.6073 66.4114 31.7857 66.6042C31.9642 66.7971 32.0814 67.0385 32.1226 67.298C32.1638 67.5575 32.1271 67.8233 32.0172 68.062C31.9072 68.3006 31.729 68.5012 31.505 68.6385C31.281 68.7758 31.0213 68.8436 30.7587 68.8332C30.4962 68.8229 30.2426 68.7349 30.0301 68.5804C29.7463 68.3729 29.556 68.0616 29.5009 67.7143C29.4457 67.367 29.5302 67.012 29.7358 66.7268Z" fill="white"/>
<path d="M25.7652 90.6244C25.9197 90.4122 26.1337 90.2505 26.3801 90.1598C26.6264 90.0692 26.8942 90.0536 27.1494 90.115C27.4046 90.1764 27.636 90.312 27.8141 90.5049C27.9923 90.6977 28.1093 90.939 28.1504 91.1983C28.1915 91.4575 28.1548 91.7232 28.045 91.9617C27.9352 92.2001 27.7572 92.4007 27.5334 92.538C27.3097 92.6753 27.0503 92.7432 26.7879 92.7332C26.5256 92.7231 26.2721 92.6356 26.0595 92.4815C25.9181 92.379 25.7983 92.2497 25.7069 92.1008C25.6156 91.952 25.5545 91.7865 25.5271 91.614C25.4998 91.4415 25.5067 91.2653 25.5476 91.0955C25.5884 90.9257 25.6624 90.7656 25.7652 90.6244Z" fill="white"/>
<path d="M16.9985 84.2576C17.1527 84.0448 17.3665 83.8826 17.6129 83.7915C17.8594 83.7003 18.1273 83.6843 18.3828 83.7455C18.6383 83.8066 18.87 83.9422 19.0484 84.135C19.2269 84.3278 19.3441 84.5693 19.3853 84.8287C19.4265 85.0882 19.3898 85.3541 19.2799 85.5927C19.1699 85.8313 18.9917 86.032 18.7677 86.1693C18.5437 86.3066 18.284 86.3743 18.0214 86.364C17.7589 86.3537 17.5053 86.2657 17.2928 86.1112C17.009 85.9037 16.8187 85.5923 16.7636 85.245C16.7084 84.8978 16.7929 84.5428 16.9985 84.2576Z" fill="white"/>
<path d="M27.7657 78.6753C27.9203 78.4628 28.1344 78.3009 28.381 78.2102C28.6276 78.1194 28.8956 78.1038 29.151 78.1654C29.4065 78.227 29.6379 78.363 29.816 78.5562C29.9942 78.7493 30.111 78.991 30.1517 79.2506C30.1924 79.5102 30.1553 79.776 30.0448 80.0145C29.9344 80.2529 29.7558 80.4532 29.5314 80.5901C29.3071 80.727 29.0473 80.7942 28.7847 80.7833C28.5222 80.7724 28.2688 80.6839 28.0566 80.5289C27.7725 80.3215 27.5823 80.0098 27.5278 79.6623C27.4732 79.3148 27.5588 78.9598 27.7657 78.6753Z" fill="white"/>
<path d="M18.9847 72.3088C19.1389 72.0961 19.3527 71.9339 19.5991 71.8428C19.8455 71.7516 20.1134 71.7356 20.369 71.7967C20.6245 71.8579 20.8561 71.9934 21.0346 72.1863C21.213 72.3791 21.3303 72.6205 21.3715 72.88C21.4127 73.1395 21.376 73.4054 21.266 73.644C21.1561 73.8826 20.9778 74.0833 20.7538 74.2206C20.5298 74.3578 20.2701 74.4256 20.0076 74.4153C19.7451 74.4049 19.4915 74.3169 19.279 74.1625C19.1377 74.0603 19.0179 73.9312 18.9266 73.7827C18.8353 73.6341 18.7742 73.469 18.7469 73.2968C18.7195 73.1245 18.7264 72.9486 18.7672 72.7791C18.8081 72.6096 18.8819 72.4497 18.9847 72.3088Z" fill="white"/>
<path d="M15.0145 96.2063C15.1687 95.9936 15.3826 95.8314 15.629 95.7402C15.8754 95.6491 16.1433 95.633 16.3988 95.6942C16.6543 95.7553 16.886 95.8909 17.0644 96.0837C17.2429 96.2766 17.3601 96.518 17.4013 96.7775C17.4425 97.0369 17.4058 97.3028 17.2959 97.5414C17.186 97.7801 17.0077 97.9807 16.7837 98.118C16.5597 98.2553 16.3 98.3231 16.0375 98.3127C15.7749 98.3024 15.5214 98.2144 15.3089 98.0599C15.0242 97.853 14.8333 97.5416 14.7782 97.194C14.723 96.8465 14.808 96.4912 15.0145 96.2063Z" fill="white"/>
<path d="M6.24792 89.8391C6.40213 89.6264 6.61596 89.4642 6.86237 89.373C7.10879 89.2819 7.3767 89.2658 7.63222 89.327C7.88774 89.3881 8.11938 89.5237 8.29783 89.7165C8.47628 89.9094 8.59353 90.1508 8.63473 90.4103C8.67594 90.6698 8.63925 90.9356 8.5293 91.1743C8.41936 91.4129 8.24111 91.6135 8.0171 91.7508C7.79309 91.8881 7.53339 91.9559 7.27087 91.9455C7.00834 91.9352 6.75477 91.8472 6.54226 91.6927C6.25762 91.4858 6.06674 91.1744 6.01156 90.8268C5.95637 90.4793 6.04138 90.124 6.24792 89.8391Z" fill="white"/>
<path d="M8.23493 77.8871C8.38947 77.6749 8.60344 77.5132 8.84981 77.4225C9.09618 77.3319 9.36389 77.3163 9.61913 77.3777C9.87438 77.4391 10.1057 77.5748 10.2839 77.7676C10.462 77.9604 10.579 78.2017 10.6201 78.461C10.6612 78.7202 10.6246 78.9859 10.5147 79.2244C10.4049 79.4628 10.2269 79.6634 10.0032 79.8007C9.77942 79.938 9.51999 80.0059 9.25766 79.9959C8.99532 79.9858 8.74185 79.8983 8.52927 79.7442C8.38784 79.6417 8.26801 79.5124 8.17664 79.3635C8.08528 79.2147 8.02418 79.0492 7.99684 78.8767C7.9695 78.7042 7.97646 78.528 8.01731 78.3582C8.05817 78.1884 8.13212 78.0283 8.23493 77.8871Z" fill="white"/>
</g>
<path d="M64.6868 34.7104C62.5459 41.3505 56.7397 46.4944 35.3968 49.9914L36.6057 56.4213L29.0931 50.6922C28.9669 50.7097 16.2544 51.9011 10.1714 47.2688C4.21458 42.7136 2.81297 35.2115 5.38142 29.9099C10.287 19.8289 24.3416 17.6459 36.7178 16.1076C49.97 14.4572 58.1308 16.2092 62.5389 21.6159C66.8874 26.9385 65.0933 33.456 64.6868 34.7104Z" fill="white"/>
<path d="M36.5989 56.7718C36.5227 56.7708 36.4489 56.745 36.3887 56.6982L28.9882 51.0533C27.5201 51.1794 15.8026 51.9958 9.97195 47.5492C3.48602 42.6051 2.61352 34.8577 5.06633 29.7594C9.87734 19.878 22.7616 17.4953 36.6725 15.7608C50.0158 14.0999 58.3238 15.8905 62.8125 21.3988C67.3011 26.9071 65.4265 33.5402 65.0095 34.8192C62.8405 41.5504 57.0309 46.7573 35.7895 50.2824L36.9423 56.3723C36.953 56.4398 36.9438 56.5088 36.9158 56.5711C36.8878 56.6333 36.8422 56.6861 36.7847 56.7228C36.7285 56.7561 36.6642 56.7731 36.5989 56.7718ZM29.0898 50.3419C29.1678 50.3421 29.2437 50.3666 29.3071 50.412L36.0874 55.5874L35.0362 50.0546C35.0272 50.0064 35.0284 49.9569 35.0397 49.9092C35.0511 49.8616 35.0723 49.8168 35.102 49.7778C35.1317 49.7389 35.1693 49.7066 35.2123 49.683C35.2552 49.6595 35.3027 49.6452 35.3515 49.6411C56.5088 46.1722 62.2413 41.1194 64.3437 34.6019C64.7397 33.379 66.4987 27.0227 62.2694 21.8368C57.9454 16.5352 49.8406 14.8288 36.7601 16.4546C23.0594 18.1786 10.3644 20.4947 5.70756 30.0607C3.41244 34.7841 4.27793 42.3248 10.3959 46.9886C16.3843 51.5438 28.9287 50.3595 29.0513 50.3454L29.0898 50.3419Z" fill="#E95322"/>
<path d="M14.2056 34.0594L17.0509 33.6179L17.5239 36.6874C17.3802 36.8065 17.205 36.9362 16.9983 37.0798C16.7637 37.2348 16.5164 37.3696 16.259 37.4828C15.9421 37.6204 15.6167 37.7374 15.2848 37.8332C14.8753 37.9571 14.4572 38.0508 14.0339 38.1135C13.3976 38.2185 12.7493 38.228 12.1102 38.1416C11.5482 38.0676 11.0123 37.8597 10.5474 37.5354C10.067 37.1863 9.67564 36.7289 9.40511 36.2003C9.06654 35.5212 8.84276 34.7906 8.74285 34.0384C8.61009 33.2938 8.60299 32.5322 8.72182 31.7853C8.8186 31.1988 9.05141 30.6432 9.4016 30.1629C9.74445 29.7148 10.1888 29.3545 10.6981 29.1117C11.2786 28.8393 11.8961 28.6539 12.5307 28.5616C12.9547 28.4919 13.3834 28.4544 13.8132 28.4494C14.1643 28.4433 14.5155 28.4608 14.8644 28.502C15.144 28.5324 15.4207 28.5864 15.6913 28.6632C15.9331 28.7368 16.1468 28.8069 16.336 28.8734L16.7776 31.8448L13.9323 32.2863L13.7991 31.4314C13.7859 31.1868 13.6763 30.9575 13.4943 30.7936C13.4023 30.7316 13.2985 30.6892 13.1893 30.6693C13.0801 30.6494 12.968 30.6524 12.8601 30.678C12.749 30.6873 12.6409 30.7187 12.5422 30.7705C12.4435 30.8223 12.3562 30.8933 12.2854 30.9793C12.165 31.1921 12.1299 31.4426 12.1873 31.6802L12.7409 35.2613C12.7565 35.5059 12.8672 35.7348 13.0493 35.899C13.2434 36.0054 13.4673 36.0445 13.686 36.0103C13.9046 35.9761 14.1059 35.8704 14.2582 35.7098C14.3796 35.4974 14.4147 35.2465 14.3563 35.009L14.2056 34.0594Z" fill="#263238"/>
<path d="M26.5712 31.2945C26.704 32.0415 26.7111 32.8053 26.5923 33.5546C26.4956 34.139 26.2627 34.6923 25.9125 35.17C25.571 35.6208 25.1248 35.9816 24.6125 36.2212C24.0329 36.4961 23.415 36.6816 22.7799 36.7713C22.1485 36.8781 21.5045 36.8875 20.8702 36.7993C20.3093 36.7253 19.7745 36.5174 19.3109 36.1932C18.8345 35.8418 18.4459 35.3848 18.1756 34.8581C17.837 34.179 17.6133 33.4484 17.5134 32.6961C17.3806 31.9516 17.3735 31.19 17.4923 30.4431C17.5884 29.8564 17.8212 29.3006 18.1721 28.8207C18.5143 28.3706 18.9603 28.0099 19.4721 27.7695C20.0517 27.4946 20.6695 27.3091 21.3047 27.2194C21.935 27.113 22.5778 27.1035 23.2109 27.1913C23.7718 27.2654 24.3066 27.4733 24.7702 27.7975C25.2476 28.1507 25.6363 28.6102 25.9055 29.1396C26.2469 29.8154 26.472 30.5439 26.5712 31.2945ZM22.454 34.6479C22.5653 34.6394 22.6736 34.6083 22.7724 34.5565C22.8712 34.5047 22.9584 34.4332 23.0287 34.3465C23.1494 34.1339 23.1845 33.8833 23.1268 33.6457L22.5732 30.0927C22.5566 29.8472 22.4462 29.6176 22.2648 29.4514C22.0707 29.345 21.8468 29.3059 21.6281 29.3401C21.4094 29.3744 21.2082 29.48 21.0559 29.6406C20.9352 29.8532 20.9001 30.1039 20.9578 30.3415L21.5149 33.919C21.5287 34.1645 21.6382 34.3947 21.8198 34.5603C21.9141 34.6169 22.019 34.6538 22.128 34.6688C22.2369 34.6839 22.3479 34.6768 22.454 34.6479Z" fill="#263238"/>
<path d="M26.1895 26.6308L31.8554 25.7548L33.8352 29.6092L34.508 25.3413L39.9742 24.4863L40.2756 26.4276L39.5748 26.5397L40.3807 31.8868L41.0815 31.7782L41.3829 33.7194L36.6419 34.4552L36.3406 32.5105L37.0414 32.4019L36.3161 27.717L34.9845 34.7251L33.7021 34.9213L30.0228 28.6911L30.7517 33.397L31.4525 33.2849L31.7538 35.2296L27.6051 35.8709L27.3037 33.9261L28.0045 33.8175L27.2021 28.4669L26.5013 28.5755L26.1895 26.6308Z" fill="#263238"/>
<path d="M40.4717 24.423L46.029 23.561C46.8364 23.3836 47.679 23.462 48.4398 23.7852C48.7463 23.9379 49.009 24.1658 49.2033 24.4478C49.3976 24.7297 49.5171 25.0563 49.5506 25.3971C49.6131 25.7324 49.5914 26.0779 49.4875 26.4027C49.3959 26.6749 49.2532 26.927 49.067 27.1456C48.9009 27.3434 48.7046 27.5137 48.4854 27.6502C48.3093 27.7617 48.1227 27.8555 47.9282 27.9305V28.0461C48.1476 28.0329 48.3676 28.0329 48.587 28.0461C48.8545 28.069 49.1157 28.1403 49.3579 28.2564C49.6294 28.3839 49.8688 28.5707 50.0587 28.803C50.287 29.1103 50.4286 29.4734 50.4686 29.8542C50.5412 30.244 50.5061 30.6462 50.367 31.0175C50.234 31.3484 50.0209 31.641 49.7468 31.869C49.4475 32.1202 49.1058 32.316 48.7377 32.4472C48.3275 32.5957 47.9039 32.7036 47.4727 32.7695L41.9118 33.628L41.6105 31.6868L42.3113 31.5747L41.4878 26.2416L40.787 26.3502L40.4717 24.423ZM45.7277 27.5766C45.8228 27.569 45.9154 27.5421 45.9997 27.4976C46.0841 27.453 46.1585 27.3916 46.2183 27.3173C46.3216 27.1329 46.3504 26.916 46.2989 26.7111L46.2323 26.2836C46.2181 26.0724 46.1242 25.8745 45.9695 25.73C45.8903 25.6777 45.8013 25.6421 45.708 25.6252C45.6146 25.6083 45.5188 25.6106 45.4264 25.6319L44.7886 25.73L45.09 27.6747L45.7277 27.5766ZM46.3374 30.965C46.4319 30.957 46.5238 30.9298 46.6075 30.8853C46.6912 30.8407 46.765 30.7796 46.8245 30.7057C46.9275 30.5212 46.9563 30.3044 46.905 30.0995L46.8245 29.5774C46.8137 29.366 46.7206 29.1673 46.5652 29.0237C46.486 28.9715 46.397 28.9358 46.3037 28.919C46.2103 28.9021 46.1145 28.9044 46.022 28.9256L45.2967 29.0378L45.6121 31.0771L46.3374 30.965Z" fill="#263238"/>
<path d="M59.5935 26.1821C59.7263 26.9303 59.7334 27.6953 59.6145 28.4457C59.5217 29.0282 59.295 29.5811 58.9523 30.0611C58.6089 30.5101 58.1632 30.8705 57.6523 31.1123C56.483 31.6497 55.1869 31.85 53.91 31.6904C53.3493 31.6135 52.8149 31.4046 52.3507 31.0807C51.8675 30.7304 51.4727 30.2721 51.1979 29.7422C50.8617 29.0639 50.6402 28.3345 50.5427 27.5837C50.4099 26.8392 50.4028 26.0776 50.5216 25.3307C50.6184 24.7442 50.8512 24.1886 51.2014 23.7083C51.5456 23.2601 51.9911 22.8999 52.5014 22.6571C53.672 22.1201 54.9691 21.9199 56.2472 22.0789C56.8067 22.1564 57.3398 22.3653 57.803 22.6886C58.2812 23.041 58.6701 23.5006 58.9383 24.0307C59.2756 24.7061 59.4971 25.4334 59.5935 26.1821ZM55.4763 29.553C55.5874 29.5437 55.6954 29.5123 55.7941 29.4605C55.8928 29.4088 55.9802 29.3377 56.051 29.2517C56.1714 29.0389 56.2064 28.7884 56.1491 28.5509L55.5954 24.9697C55.5798 24.7251 55.4692 24.4962 55.2871 24.332C55.1948 24.2707 55.0909 24.2288 54.9819 24.209C54.8728 24.1891 54.7609 24.1916 54.6529 24.2164C54.5418 24.2257 54.4337 24.2571 54.335 24.3089C54.2363 24.3606 54.149 24.4316 54.0782 24.5177C53.9573 24.7303 53.9234 24.9815 53.9836 25.2185L54.5372 28.7996C54.5504 29.0442 54.66 29.2735 54.8421 29.4374C54.9344 29.4987 55.0383 29.5406 55.1473 29.5604C55.2563 29.5803 55.3683 29.5778 55.4763 29.553Z" fill="#263238"/>
<path d="M25.8246 43.562C25.6691 43.5883 25.5099 43.5829 25.3566 43.5462C25.2032 43.5094 25.0589 43.442 24.9323 43.3481C24.8056 43.2542 24.6993 43.1356 24.6196 42.9996C24.5399 42.8635 24.4885 42.7128 24.4685 42.5564C24.0585 39.9494 26.5709 37.3249 27.8884 37.1181C28.3159 37.0516 28.5892 37.2373 28.5892 37.3214V37.3634C28.6688 37.3415 28.7495 37.3239 28.831 37.3109C28.9292 37.2929 29.0301 37.2955 29.1274 37.3184C29.2246 37.3413 29.316 37.384 29.3959 37.4439C29.4759 37.5037 29.5426 37.5795 29.5919 37.6663C29.6412 37.7532 29.672 37.8493 29.6825 37.9486C29.9243 39.3922 27.8849 43.2396 25.8246 43.562ZM28.2949 38.3726C28.1512 38.3936 28.0321 38.341 27.9865 38.0467C27.1897 38.5171 26.5385 39.1986 26.1049 40.016C25.7064 40.6442 25.4983 41.3744 25.5057 42.1184C25.5442 42.3671 25.6669 42.5038 25.8561 42.4688C26.1785 42.4197 26.9634 41.8626 27.6572 40.6432C28.2914 39.5324 28.5086 38.7755 28.4631 38.4882C28.4631 38.3971 28.407 38.3515 28.3404 38.3621L28.2949 38.3726Z" fill="#E95322"/>
<path d="M32.1637 38.7581C32.2198 38.7581 32.2829 38.7897 32.3494 38.7932C33.0502 38.5444 33.7125 38.3236 33.8702 38.257C33.9014 38.2424 33.9344 38.2318 33.9683 38.2255C34.25 38.239 34.5308 38.2682 34.8093 38.3131C34.8548 38.3131 34.9564 38.4673 34.981 38.6109C34.9931 38.6584 34.9878 38.7086 34.9659 38.7523C34.944 38.7961 34.907 38.8305 34.8618 38.8492C34.7882 38.8737 34.2731 39.0945 33.5899 39.3748C33.8535 39.5848 34.0367 39.8794 34.1085 40.2088C34.4203 42.2061 30.7902 47.0837 29.4306 47.2974C29.3284 47.3199 29.2226 47.3217 29.1197 47.3027C29.0167 47.2837 28.9186 47.2444 28.8311 47.1869C28.7436 47.1294 28.6685 47.055 28.6102 46.9681C28.5519 46.8812 28.5115 46.7835 28.4915 46.6807C28.3058 45.4788 29.1923 43.3659 30.2786 40.7239C30.1868 40.76 30.0918 40.787 29.9947 40.8045C29.9399 40.8155 29.8835 40.815 29.8289 40.803C29.7743 40.7911 29.7227 40.7679 29.6776 40.7349C29.6325 40.702 29.5947 40.66 29.5666 40.6116C29.5386 40.5633 29.5209 40.5096 29.5147 40.4541C29.5147 40.391 29.4376 40.3279 29.4271 40.2613C29.4245 40.2428 29.4274 40.224 29.4355 40.2071C29.4436 40.1903 29.4566 40.1762 29.4726 40.1667C29.5708 40.0581 29.6058 39.9039 29.7109 39.7778C29.8207 39.6183 29.9543 39.4765 30.1069 39.3573C30.3942 39.2112 30.6889 39.0802 30.9899 38.9649C32.4616 35.3137 33.9578 31.9568 34.0804 31.7396C34.3478 31.3756 34.7349 31.1176 35.1737 31.0107C35.2893 31.0107 35.3734 31.0318 35.3909 31.1404C35.3962 31.1971 35.3902 31.2542 35.3734 31.3086C35.2893 31.5854 33.2605 36.0951 32.1637 38.7581ZM32.3529 39.8829L31.5856 40.1878C30.7972 42.171 29.4832 45.3071 29.5918 45.8853C29.5918 45.9589 29.6373 45.9904 29.6864 45.9834C30.1594 45.9098 33.1624 42.3042 32.882 40.5031C32.8461 40.3666 32.7799 40.24 32.6883 40.1326C32.5967 40.0252 32.4821 39.9399 32.3529 39.8829Z" fill="#E95322"/>
<path d="M37.4305 37.9348C37.4901 37.9348 37.5532 37.9664 37.6163 37.9699C38.3171 37.7211 38.9793 37.5038 39.137 37.4337C39.1684 37.4203 39.2014 37.4109 39.2351 37.4057C39.5171 37.4157 39.7981 37.445 40.0761 37.4933C40.1216 37.4933 40.2232 37.644 40.2478 37.7876C40.2607 37.8351 40.2557 37.8856 40.2337 37.9296C40.2117 37.9735 40.1743 38.0078 40.1286 38.0259L38.8567 38.555C39.121 38.7645 39.3043 39.0593 39.3753 39.389C39.6871 41.3828 36.057 46.2604 34.6974 46.4741C34.5954 46.4971 34.4897 46.4992 34.3868 46.4804C34.2839 46.4616 34.1858 46.4222 34.0985 46.3647C34.0112 46.3071 33.9363 46.2325 33.8785 46.1453C33.8206 46.0582 33.781 45.9602 33.7618 45.8574C33.5726 44.659 34.4626 42.5426 35.5454 39.8831C35.4547 39.9186 35.3608 39.9456 35.2651 39.9636C35.2103 39.9747 35.1538 39.9742 35.0992 39.9622C35.0446 39.9502 34.9931 39.927 34.9479 39.8941C34.9028 39.8611 34.865 39.8191 34.8369 39.7708C34.8089 39.7224 34.7912 39.6688 34.785 39.6132C34.785 39.5502 34.7044 39.4871 34.6939 39.424C34.6922 39.4056 34.6955 39.3871 34.7035 39.3704C34.7115 39.3537 34.724 39.3395 34.7395 39.3294C34.8376 39.2173 34.8726 39.0666 34.9777 38.9405C35.0866 38.7802 35.2203 38.6383 35.3737 38.52C35.6603 38.3713 35.9551 38.2391 36.2567 38.124C37.7319 34.4764 39.2246 31.116 39.3472 30.8988C39.6159 30.5361 40.0024 30.2784 40.4405 30.1699C40.5561 30.1699 40.6402 30.1909 40.6577 30.2996C40.6686 30.3563 40.6686 30.4146 40.6577 30.4713C40.5561 30.7621 38.5308 35.2753 37.4305 37.9348ZM37.6198 39.0631L36.8559 39.3645C36.0675 41.3477 34.7535 44.4873 34.8586 45.0655C34.8586 45.1356 34.9041 45.1671 34.9567 45.1601C35.4262 45.0865 38.4292 41.4844 38.1489 39.6833C38.1141 39.5463 38.0484 39.4191 37.9566 39.3115C37.8649 39.204 37.7496 39.119 37.6198 39.0631Z" fill="#E95322"/>
<path d="M43.6108 36.3264C43.3831 36.3615 43.3375 36.2493 43.306 36.0426C43.2974 35.9798 43.2974 35.9162 43.306 35.8534C43.1147 35.9596 42.934 36.084 42.7664 36.2248C42.5491 36.3895 41.6696 37.1849 41.7152 37.4512C41.7152 37.5073 41.8378 37.4897 41.8658 37.4827C42.2513 37.4232 42.5386 37.1323 42.9171 37.0798C42.9648 37.0745 43.013 37.0745 43.0607 37.0798C43.2336 37.1723 43.3687 37.3222 43.4427 37.5038C43.4637 37.6264 43.3235 37.7701 43.2429 37.8542C43.0642 38.0574 42.8224 38.11 42.6192 38.2676C42.3529 38.4779 41.2421 39.3188 41.2912 39.6692C41.3683 40.1703 41.9499 40.1388 42.3424 40.0792C43.3936 39.9145 44.2276 38.7757 44.7952 38.18C44.8377 38.1351 44.8907 38.1014 44.9494 38.0819C45.1351 38.0539 45.2017 38.4884 45.2227 38.618C45.2514 38.7468 45.2574 38.8797 45.2402 39.0105C45.1889 39.1541 45.1063 39.2846 44.9984 39.3924C44.3992 40.0547 43.4567 40.9062 42.3003 41.0884C41.4489 41.2215 40.2925 41.1304 40.1279 40.0792C40.0052 39.2873 40.6289 38.7267 41.2597 38.3728C40.8392 38.2536 40.7621 37.9803 40.7025 37.6019C40.4818 36.2003 42.6963 34.7987 43.9122 34.627C44.161 34.5884 44.655 34.627 44.7006 34.9493C44.7273 35.2743 44.6297 35.5972 44.4274 35.8529C44.2251 36.1085 43.9332 36.2778 43.6108 36.3264Z" fill="#E95322"/>
<path d="M49.4915 36.4452C49.4623 36.5207 49.4151 36.5879 49.354 36.641C49.293 36.6942 49.2199 36.7316 49.1411 36.7501C49.0728 36.7573 49.0038 36.7506 48.9383 36.7302C48.8728 36.7099 48.8121 36.6764 48.7599 36.6318C48.7078 36.5872 48.6653 36.5324 48.635 36.4708C48.6048 36.4092 48.5874 36.3421 48.5839 36.2735C48.5643 35.8462 48.6876 35.4246 48.9343 35.0752C48.5839 35.1628 46.9476 37.4999 46.6497 37.9485C46.2082 38.6212 45.8018 39.3185 45.4303 40.0298C45.3568 40.1735 45.2061 40.3802 45.0414 40.4048C44.8009 40.3977 44.5636 40.3479 44.3406 40.2576C44.2845 40.2366 44.2775 40.1945 44.2705 40.1525C44.3034 39.8193 44.4036 39.4963 44.5648 39.2029C45.0099 38.0361 45.4759 36.8867 45.9384 35.7374C46.0714 35.3571 46.2294 34.986 46.4115 34.6266C46.53 34.462 46.6829 34.325 46.8595 34.2251C47.0362 34.1253 47.2324 34.0651 47.4346 34.0485C47.5748 34.0275 47.6309 34.1781 47.6484 34.3008C47.7009 34.6512 47.1403 35.7269 46.9826 36.0948C47.5397 35.2328 48.4718 33.9013 49.5581 33.7331C49.6444 33.7139 49.7338 33.7127 49.8206 33.7297C49.9074 33.7467 49.9898 33.7814 50.0625 33.8318C50.1353 33.8821 50.1968 33.947 50.2432 34.0223C50.2897 34.0976 50.3201 34.1816 50.3324 34.2692C50.3815 34.6477 49.7228 36.0283 49.4915 36.4452Z" fill="#E95322"/>
<path d="M65.1892 139.47C66.0161 133.766 65.6903 129.308 66.8115 120.401C67.0183 118.11 67.2776 115.657 67.5894 113.484C68.6406 106.171 69.9476 103.74 70.1544 102.331C70.1544 102.331 71.1705 90.9079 72.8069 74.863C73.5743 67.3154 75.9325 65.1814 77.9718 61.292L98.7927 62.7882C100.408 72.8623 99.5145 94.5171 98.7121 104.724C98.3021 109.928 94.1989 137.627 94.1113 138.265C93.7995 140.528 93.9326 141.439 94.7561 142.469C96.4765 144.603 99.045 146.702 101.256 148.616C100.853 149.485 98.0463 149.25 96.7008 148.472C94.9465 147.387 93.2899 146.151 91.7496 144.779C89.9345 143.219 87.5448 141.902 87.685 139.736C87.6836 139.605 87.6707 139.473 87.6464 139.344C87.7025 138.079 86.0976 119.238 86.1607 114.896C86.2168 111.165 87.1243 104.889 87.1243 104.889L85.8559 88.9597C85.8559 88.9597 83.7114 98.1612 81.7562 104.409C80.1688 109.493 77.5268 118.176 75.6977 124.445C73.8546 131.681 71.5455 136.761 70.9498 140.409C70.7851 141.278 69.1733 149.81 68.6231 151.752C68.073 153.693 63.7736 153.437 63.7385 150.028C63.7175 147.768 65.0315 140.542 65.1892 139.47Z" fill="#C8856A"/>
<path d="M85.8555 88.96L88.4274 77.7472C88.4274 77.7472 95.2637 77.4283 97.8883 75.2383C97.8883 75.2383 94.4648 79.4011 89.829 79.7935L87.222 89.0686L87.1204 104.767L85.8555 88.96Z" fill="#F28F8F"/>
<path d="M75.2773 61.166C71.8398 66.1838 71.6086 68.987 70.7501 82.3688C69.8215 96.8159 69.8776 99.6436 69.6989 101.255C69.5202 102.867 68.4129 105.678 67.0113 113.562C65.6097 121.446 65.911 130.984 65.911 130.984C65.911 130.984 66.3876 132.301 69.4151 132.792C72.1972 133.244 73.6619 132.294 73.6619 132.294C73.6619 132.294 78.6166 117.101 80.0217 112.391C81.4268 107.682 85.6491 92.173 85.6491 92.173L86.5427 105.078C86.5427 105.078 85.3723 109.399 85.7262 116.428C86.0801 123.457 87.0753 130.7 87.0753 130.7C88.4229 131.28 89.8611 131.621 91.3257 131.709C93.7259 131.845 95.1801 131.008 95.1801 131.008C95.1801 131.008 99.052 110.45 99.6196 102.555C100.187 94.6609 100.937 74.8737 99.2938 63.0021L75.2773 61.166Z" fill="#37474F"/>
<path d="M89.2199 77.1689L85.6283 92.1731L86.5428 105.078L86.6935 92.0925L89.8226 79.7934C91.7603 79.4745 96.2559 77.5018 97.6821 74.3271C94.5285 77.1689 89.2199 77.1689 89.2199 77.1689ZM73.8863 117.146C72.8515 121.204 71.8692 125.276 70.9395 129.361C72.1869 125.36 73.3806 121.345 74.5206 117.318C75.6769 113.288 76.7771 109.259 77.8774 105.208C78.9777 101.157 79.731 97.0156 80.4353 92.8809C81.1396 88.7462 81.7458 84.6044 82.296 80.4522C81.4235 84.5519 80.607 88.6586 79.7906 92.7618C78.9742 96.865 78.1157 100.958 77.061 104.994C76.0063 109.031 74.9095 113.085 73.8863 117.146ZM96.9708 97.9267C96.9252 99.7418 96.9007 101.571 96.743 103.358C96.5853 105.145 96.333 106.971 96.1123 108.775L95.4465 114.189C94.998 117.807 94.5927 121.428 94.2306 125.051C94.9174 121.463 95.54 117.867 96.0983 114.262C96.6589 110.653 97.195 107.058 97.584 103.4C97.8363 99.7172 97.7837 96.0766 97.7206 92.4219C97.6576 88.7672 97.4648 85.123 97.1635 81.4858L97.0619 92.4639C97.0338 94.2825 97.0198 96.1046 96.9708 97.9267Z" fill="#263238"/>
<path d="M112.483 35.8146C112.67 35.2118 112.78 34.5879 112.812 33.9575C112.872 31.6694 113.727 30.019 114.886 28.0988C115.086 27.7694 115.289 27.4435 115.493 27.1177C115.596 26.9637 115.69 26.8034 115.773 26.6376C115.847 26.4764 115.913 26.3433 116.123 26.3748C116.278 26.4095 116.415 26.4991 116.509 26.6271C116.661 26.8396 116.767 27.0815 116.82 27.3374C116.873 27.5932 116.872 27.8573 116.817 28.1128C116.705 28.6217 116.549 29.12 116.351 29.602C116.221 29.9804 116.656 29.8403 116.849 29.7457C117.809 29.2796 118.716 27.8535 119.302 26.974C119.625 26.3642 119.993 25.7786 120.402 25.222C120.675 24.8926 121.041 24.6543 121.453 24.5387C121.733 24.4721 122.017 24.5037 122.063 24.8646C122.069 25.0903 122.023 25.3144 121.93 25.5198C121.775 25.9578 121.649 26.3538 121.863 26.7953C122.028 27.0576 122.159 27.3403 122.252 27.6363C122.325 28.0252 122.171 28.4212 122.206 28.8171C122.29 29.142 122.393 29.4614 122.515 29.7737C122.519 30.1808 122.437 30.5842 122.276 30.9581C122.025 31.7516 121.672 32.509 121.225 33.2111C120.532 34.2674 119.73 35.2481 118.832 36.137C118.305 36.6047 117.883 37.1777 117.592 37.8189C117.373 38.4904 117.22 39.1817 117.136 39.8828C117.006 40.7553 116.894 41.6348 116.761 42.5073C115.359 51.9681 114.424 52.8652 113.292 53.9724C112.493 54.7538 111.064 54.7258 107.5 52.8547C102.517 50.2337 95.5127 46.3792 95.5127 46.3792L92.1104 35.1103C92.1104 35.1103 96.5149 35.5693 98.4001 36.8798C101.76 39.2135 109.175 44.6903 109.175 44.6903C109.175 44.6903 112.143 37.048 112.483 35.8146Z" fill="#C8856A"/>
<path d="M116.281 31.1714C116.471 32.4539 116.054 34.2479 115.619 34.9347C115.619 34.9347 116.288 34.7069 116.67 33.1547C116.777 32.818 116.798 32.4599 116.73 32.1132C116.662 31.7666 116.508 31.4427 116.281 31.1714Z" fill="#AF6152"/>
<path d="M109.175 44.7008L108.327 44.0806C107.47 45.705 107.27 47.5971 107.77 49.3646C107.971 47.7416 108.446 46.1646 109.175 44.7008Z" fill="#AF6152"/>
<path d="M88.484 34.7632L80.5334 34.9664C78.5899 35.2667 76.6645 35.6738 74.7658 36.1858C73.4868 36.5642 74.1561 41.3542 74.2787 46.0847C74.545 56.0781 72.9297 62.3818 72.9297 62.3818C78.2137 68.4893 97.7311 66.6532 100.503 63.3209C100.503 63.3209 100.566 58.9199 100.398 52.8089C100.282 48.6881 100.205 44.3361 98.8419 41.8623C96.0387 36.792 92.1107 35.1206 92.1107 35.1206L88.484 34.7632Z" fill="#E95322"/>
<g opacity="0.5">
<path d="M88.484 34.7632L80.5334 34.9664C78.5899 35.2667 76.6645 35.6738 74.7658 36.1858C73.4868 36.5642 74.1561 41.3542 74.2787 46.0847C74.545 56.0781 72.9297 62.3818 72.9297 62.3818C78.2137 68.4893 97.7311 66.6532 100.503 63.3209C100.503 63.3209 100.566 58.9199 100.398 52.8089C100.282 48.6881 100.205 44.3361 98.8419 41.8623C96.0387 36.792 92.1107 35.1206 92.1107 35.1206L88.484 34.7632Z" fill="white"/>
</g>
<path d="M77.4459 15.9641C75.6378 16.4827 74.7899 17.1275 74.3939 17.5655C73.5985 18.438 73.2516 19.8746 73.2376 21.0695C73.2376 22.0646 73.4829 22.9056 72.9958 23.7746C72.7079 24.2781 72.333 24.7265 71.8885 25.0991C71.6492 25.305 71.4575 25.5605 71.3268 25.848C71.1961 26.1354 71.1295 26.4478 71.1317 26.7635C71.1786 27.3465 71.4262 27.8951 71.8325 28.3158C72.2389 28.7573 72.6209 29.367 72.4211 29.9206C72.3675 30.05 72.2863 30.1661 72.1833 30.261C72.0804 30.356 71.958 30.4274 71.8247 30.4704C71.6914 30.5133 71.5504 30.5269 71.4114 30.51C71.2724 30.4931 71.1387 30.4463 71.0195 30.3727C71.417 30.7473 71.9463 30.9498 72.4923 30.936C73.0384 30.9223 73.5568 30.6933 73.9349 30.2991C73.7957 30.6915 73.7888 31.1188 73.9154 31.5156C74.0419 31.9123 74.2949 32.2567 74.6357 32.4961C75.338 32.9583 76.1894 33.1374 77.0184 32.9972C77.7311 32.8737 78.4644 32.9703 79.1208 33.274C79.5203 33.4702 79.8882 33.726 80.2841 33.9292C81.0275 34.3053 81.8558 34.4816 82.6879 34.4408C83.1119 34.4198 83.5289 34.3427 83.9528 34.3287C84.7903 34.3006 85.6102 34.5179 86.4442 34.5424C87.2782 34.567 87.8143 33.9152 88.6202 33.8206C89.4261 33.726 90.162 33.8206 90.9328 33.7821C91.6952 33.7492 92.4394 33.539 93.1063 33.1681C93.7732 32.7971 94.3443 32.2758 94.7743 31.6454C95.2043 31.015 95.4813 30.293 95.5833 29.5367C95.6854 28.7805 95.6095 28.0109 95.3619 27.2891C95.7411 27.27 96.1188 27.3481 96.4592 27.5162C96.7996 27.6842 97.0913 27.9366 97.3066 28.2492C97.3211 27.9241 97.2661 27.5997 97.1453 27.2976C97.0244 26.9955 96.8405 26.7226 96.6058 26.4972C95.9401 25.8665 94.8889 25.6247 94.4824 24.8048C94.3633 24.4983 94.3141 24.169 94.3384 23.8411C94.3626 23.5132 94.4597 23.1948 94.6226 22.9091C94.9064 22.3169 95.3234 21.7913 95.5792 21.1886C97.1735 17.562 93.7851 13.4973 90.6455 12.0992C86.241 10.1545 78.0836 10.603 77.4459 15.9641Z" fill="#263238"/>
<path d="M91.8406 15.7261C91.8406 15.7261 94.0447 17.874 94.4722 24.4861C94.8226 29.9874 93.9676 31.3715 92.5309 32.1634C91.6725 32.6329 90.2393 32.8642 88.5329 32.8642L88.7571 35.2294C88.7571 35.2294 93.5927 39.6199 89.7663 40.3453C87.7304 40.7342 85.6666 39.8232 83.8375 38.814C82.5986 38.0592 81.542 37.0397 80.7434 35.8286L80.2529 30.0084C79.8796 30.3051 79.4118 30.4571 78.9355 30.4365C78.4591 30.4159 78.0062 30.2241 77.6599 29.8963C76.2828 28.6769 75.8133 26.7427 76.6998 25.4777C77.5863 24.2128 79.1526 24.4265 80.1793 25.8281C80.1793 25.8281 81.7421 26.2767 81.4232 24.2583C81.4232 24.2583 84.8922 22.5274 83.0035 17.1172C84.2229 16.1816 86.5496 18.1333 88.7431 18.0668C89.8679 18.0317 91.0382 15.9363 91.8406 15.7261Z" fill="#C8856A"/>
<path d="M87.0257 27.4326L89.5801 28.2105C89.5369 28.3818 89.4595 28.5425 89.3525 28.6831C89.2456 28.8237 89.1113 28.9412 88.9578 29.0286C88.8043 29.116 88.6348 29.1714 88.4593 29.1916C88.2838 29.2118 88.1061 29.1963 87.9367 29.1461C87.5931 29.0332 87.3065 28.7918 87.1367 28.4725C86.9669 28.1532 86.9271 27.7806 87.0257 27.4326Z" fill="#AF6152"/>
<path d="M87.3098 28.095C87.458 28.0795 87.6078 28.0934 87.7507 28.136C87.8935 28.1785 88.0265 28.2489 88.1421 28.3429C88.2577 28.437 88.3536 28.553 88.4242 28.6843C88.4948 28.8155 88.5388 28.9594 88.5537 29.1077C88.5555 29.1298 88.5555 29.1521 88.5537 29.1742C88.349 29.2154 88.1372 29.2058 87.937 29.1462C87.7138 29.0748 87.5127 28.9475 87.3526 28.7764C87.1925 28.6052 87.0789 28.396 87.0225 28.1686C87.1145 28.1314 87.2112 28.1067 87.3098 28.095Z" fill="#F28F8F"/>
<path d="M92.7755 20.9818L91.1006 20.6314C91.1149 20.5204 91.1517 20.4135 91.2088 20.3173C91.2659 20.2211 91.3421 20.1377 91.4327 20.072C91.5233 20.0064 91.6264 19.9599 91.7356 19.9356C91.8448 19.9113 91.9578 19.9096 92.0677 19.9306C92.3008 19.9763 92.5063 20.1127 92.639 20.3098C92.7717 20.5069 92.8208 20.7486 92.7755 20.9818Z" fill="#263238"/>
<path d="M85.9673 20.8559L84.4956 21.7179C84.4349 21.6249 84.3937 21.5204 84.3746 21.411C84.3554 21.3015 84.3587 21.1893 84.3843 21.0811C84.4099 20.973 84.4571 20.8712 84.5233 20.7819C84.5894 20.6925 84.673 20.6176 84.7689 20.5616C84.9682 20.4471 85.2039 20.4138 85.4271 20.4687C85.6503 20.5235 85.8437 20.6622 85.9673 20.8559Z" fill="#263238"/>
<path d="M88.1475 22.1138L89.1741 26.5393L91.3817 25.1658L88.1475 22.1138Z" fill="#AF6152"/>
<path d="M88.5322 32.8605C84.6322 32.6958 82.7085 31.7357 81.9131 30.4077C81.9131 30.4077 82.3511 32.1597 83.6476 32.7834C85.8901 33.8346 88.6233 33.8101 88.6233 33.8101L88.5322 32.8605Z" fill="#AF6152"/>
<path d="M90.8555 22.5693C90.8599 22.7724 90.9426 22.9659 91.0862 23.1095C91.2298 23.2531 91.4233 23.3358 91.6264 23.3402C91.7252 23.343 91.8236 23.326 91.9158 23.2901C92.0079 23.2542 92.0919 23.2002 92.1628 23.1313C92.2337 23.0623 92.2901 22.9799 92.3285 22.8888C92.367 22.7977 92.3868 22.6998 92.3867 22.6009C92.384 22.3973 92.3019 22.2028 92.1579 22.0588C92.014 21.9148 91.8195 21.8327 91.6159 21.83C91.5169 21.8267 91.4183 21.8434 91.3259 21.8791C91.2335 21.9148 91.1493 21.9688 91.0783 22.0379C91.0073 22.1069 90.951 22.1896 90.9127 22.2809C90.8744 22.3722 90.855 22.4703 90.8555 22.5693Z" fill="#263238"/>
<path d="M85.2842 23.0354C85.2878 23.2381 85.3696 23.4316 85.5127 23.5753C85.6557 23.719 85.8488 23.8017 86.0516 23.8062C86.1491 23.8095 86.2463 23.7934 86.3375 23.7587C86.4287 23.7241 86.5121 23.6716 86.5828 23.6045C86.6536 23.5373 86.7103 23.4567 86.7496 23.3675C86.7889 23.2782 86.8101 23.182 86.8119 23.0844C86.8092 22.8814 86.7276 22.6874 86.5844 22.5435C86.4412 22.3996 86.2475 22.3172 86.0446 22.3135C85.9469 22.3098 85.8495 22.3256 85.7581 22.3601C85.6667 22.3945 85.5831 22.4469 85.5122 22.5142C85.4414 22.5815 85.3847 22.6622 85.3455 22.7517C85.3064 22.8412 85.2855 22.9377 85.2842 23.0354Z" fill="#263238"/>
<path d="M103.064 52.4199C100.961 51.2075 98.0739 51.3687 94.8748 53.2258C88.4799 56.9191 83.3115 65.8998 83.3115 73.2863C83.3115 76.9936 84.6185 79.5935 86.7314 80.7919L90.274 82.8382C92.3764 84.0471 95.2602 83.8719 98.4559 82.0288C104.854 78.3356 110.019 69.3548 110.019 61.9789C110.019 58.2926 108.726 55.7032 106.638 54.4908L103.064 52.4199Z" fill="#E95322"/>
<path d="M98.4382 55.2829C104.837 51.5897 110.019 54.5821 110.019 61.9686C110.019 69.355 104.854 78.3358 98.4382 82.029C92.0223 85.7223 86.8574 82.7298 86.8574 75.3434C86.8574 67.9569 92.0434 58.9761 98.4382 55.2829Z" fill="#E95322"/>
<path opacity="0.3" d="M98.4382 55.2829C104.837 51.5897 110.019 54.5821 110.019 61.9686C110.019 69.355 104.854 78.3358 98.4382 82.029C92.0223 85.7223 86.8574 82.7298 86.8574 75.3434C86.8574 67.9569 92.0434 58.9761 98.4382 55.2829Z" fill="white"/>
<path d="M96.6582 60.4265L100.222 58.3696V76.8848L96.6582 78.9417V60.4265Z" fill="#FAFAFA"/>
<path d="M106.456 61.9683V66.0855L90.4219 75.3431V71.2259L106.456 61.9683Z" fill="#FAFAFA"/>
<path d="M89.2578 58.3311C90.2494 57.1503 90.5403 56.9926 91.7562 56.7438C92.9721 56.495 93.5292 56.3689 94.0128 56.3128C94.8593 56.2702 95.7079 56.3325 96.5392 56.4985C97.1664 56.7578 96.4305 57.7565 95.5055 57.9001C94.5804 58.0438 93.3575 58.1034 93.3575 58.1034L89.2578 58.3311Z" fill="#AF6152"/>
<path d="M74.7409 36.186C71.4437 37.1952 69.0574 38.4146 68.4933 42.0938C67.9291 45.773 66.2507 56.6635 66.2367 59.5158C66.2227 62.368 66.5871 63.0478 69.082 63.9308C71.1528 64.6632 79.4293 65.7179 83.2242 66.0788C83.7316 66.1279 84.2436 66.0585 84.7197 65.876C85.1958 65.6936 85.623 65.4032 85.9678 65.0276L88.8656 61.8354L74.4501 57.3293L76.0655 47.9245C76.0655 47.9245 77.5512 38.8526 74.7409 36.186Z" fill="#C8856A"/>
<path d="M84.7061 63.6256C85.0985 63.4819 84.9583 61.7685 85.5996 61.4146C86.2408 61.0607 86.3529 61.1413 86.5807 60.4299C86.8085 59.7186 87.264 59.3787 87.6845 59.3472C88.1049 59.3157 87.8211 58.5658 88.5675 58.2434C89.5424 57.948 90.5473 57.7623 91.5634 57.6898C92.2817 57.6407 94.0478 58.3906 94.8186 58.769C95.5895 59.1475 95.1901 59.6906 94.7906 59.9884C94.3911 60.2863 93.5081 60.2267 93.5081 60.2267C93.5081 60.2267 94.3176 60.7348 94.2089 61.0537C94.0548 61.4706 93.3855 61.9261 92.3028 61.6598C93.0386 62.0102 93.0386 62.4623 92.527 62.7776C92.1346 63.0159 91.5143 63.0369 90.7575 62.8933C89.8044 62.7146 88.5394 62.5113 87.8772 62.9213L87.2675 63.5871L84.7061 63.6256Z" fill="#C8856A"/>
<path d="M84.7061 63.6258C84.8813 63.5767 84.9478 63.377 85.0214 63.2333C85.095 63.0896 85.13 62.9144 85.1721 62.7603C85.2398 62.4561 85.3335 62.1583 85.4524 61.8702C85.4965 61.7503 85.5744 61.6456 85.6767 61.5689L86.0936 61.3166C86.2558 61.2288 86.3867 61.0929 86.4686 60.9277C86.5304 60.7695 86.5682 60.603 86.5807 60.4336C86.5059 60.5758 86.4179 60.7107 86.3179 60.8366C86.2246 60.9452 86.1035 61.0263 85.9675 61.0713C85.8203 61.1309 85.6697 61.1975 85.5155 61.2746C85.3443 61.3781 85.2096 61.5324 85.13 61.7161C85.0021 62.0325 84.9252 62.3672 84.9023 62.7077L84.8532 63.1913C84.8575 63.349 84.8053 63.5031 84.7061 63.6258Z" fill="#AF6152"/>
<path d="M93.5084 60.2267C93.0984 59.9989 92.6919 59.7782 92.2715 59.5785C91.8499 59.3602 91.4088 59.1819 90.9539 59.0459C90.4754 59.0008 89.9931 59.0126 89.5173 59.0809C89.0523 59.1328 88.5911 59.2148 88.1367 59.3262C88.6028 59.3542 89.0688 59.3647 89.5383 59.3612H90.2391C90.4569 59.3551 90.6747 59.3657 90.8909 59.3928C91.3008 59.4979 91.7423 59.6871 92.1768 59.8343C92.612 59.993 93.0567 60.1241 93.5084 60.2267Z" fill="#AF6152"/>
<path d="M87.1943 61.043C87.6358 61.043 88.0843 60.9695 88.5013 60.9274C88.9191 60.9035 89.3378 60.9534 89.7382 61.0746C90.5757 61.2848 91.4202 61.5231 92.2962 61.6598C91.5095 61.2593 90.681 60.9467 89.8258 60.7277C89.3833 60.598 88.9167 60.5728 88.4628 60.6541C88.0324 60.7578 87.6088 60.8877 87.1943 61.043Z" fill="#AF6152"/>
</svg>
