<svg width="120" height="120" viewBox="0 0 120 120" fill="none" xmlns="http://www.w3.org/2000/svg">
<path fill-rule="evenodd" clip-rule="evenodd" d="M21.9741 19.0003C24.5742 12.9336 30.5395 9 37.14 9H84.3145C90.915 9 96.8803 12.9335 99.4804 19.0003L104.546 30.82C105.29 32.5555 105.73 34.4059 105.848 36.2904L109.422 93.4707C110.015 102.97 102.471 111 92.9538 111H28.5007C18.9831 111 11.4391 102.97 12.0328 93.4708L15.6066 36.2904C15.7243 34.4059 16.1647 32.5555 16.9085 30.82L21.9741 19.0003ZM37.14 18C34.1398 18 31.4282 19.788 30.2464 22.5456L25.1808 34.3653C24.8427 35.1541 24.6426 35.9952 24.589 36.8518L21.0153 94.0322C20.7454 98.3499 24.1745 102 28.5007 102H92.9538C97.28 102 100.709 98.3499 100.439 94.0322L96.8655 36.8518C96.8119 35.9952 96.6117 35.1541 96.2736 34.3653L91.2081 22.5456C90.0262 19.788 87.3147 18 84.3145 18H37.14Z" fill="#E95322"/>
<path fill-rule="evenodd" clip-rule="evenodd" d="M16.9872 30.6365C15.2904 34.5957 18.1946 39 22.5021 39H98.9524C103.26 39 106.164 34.5957 104.467 30.6365L99.4804 19.0003C96.8804 12.9336 90.915 9 84.3145 9H37.14C30.5395 9 24.5742 12.9335 21.9741 19.0003L16.9872 30.6365ZM27.0517 30L30.2464 22.5456C31.4283 19.788 34.1398 18 37.14 18H84.3145C87.3147 18 90.0263 19.788 91.2081 22.5456L94.4028 30H27.0517Z" fill="#E95322"/>
<path fill-rule="evenodd" clip-rule="evenodd" d="M42.7275 48C45.2128 48 47.2275 50.0147 47.2275 52.5C47.2275 54.2728 47.5767 56.0283 48.2552 57.6662C48.9336 59.3041 49.928 60.7923 51.1816 62.0459C52.4352 63.2995 53.9234 64.2939 55.5613 64.9724C57.1992 65.6508 58.9547 66 60.7275 66C62.5004 66 64.2559 65.6508 65.8938 64.9724C67.5317 64.2939 69.0199 63.2995 70.2735 62.0459C71.5271 60.7924 72.5215 59.3041 73.1999 57.6662C73.8784 56.0283 74.2275 54.2728 74.2275 52.5C74.2275 50.0147 76.2423 48 78.7275 48C81.2128 48 83.2275 50.0147 83.2275 52.5C83.2275 55.4547 82.6456 58.3806 81.5148 61.1104C80.3841 63.8402 78.7268 66.3206 76.6374 68.4099C74.5481 70.4992 72.0677 72.1566 69.3379 73.2873C66.6081 74.418 63.6823 75 60.7275 75C57.7728 75 54.847 74.418 52.1172 73.2873C49.3873 72.1566 46.907 70.4992 44.8176 68.4099C42.7283 66.3206 41.071 63.8402 39.9402 61.1104C38.8095 58.3806 38.2275 55.4547 38.2275 52.5C38.2275 50.0147 40.2423 48 42.7275 48Z" fill="#E95322"/>
<path fill-rule="evenodd" clip-rule="evenodd" d="M60.7275 66C63.2128 66 65.2275 68.0147 65.2275 70.5L65.2275 88.5C65.2275 90.9853 63.2128 93 60.7275 93C58.2423 93 56.2275 90.9853 56.2275 88.5L56.2275 70.5C56.2275 68.0147 58.2423 66 60.7275 66Z" fill="#E95322"/>
</svg>
